<svg width="68" height="29" viewBox="0 0 68 29" fill="none" xmlns="http://www.w3.org/2000/svg">
<path d="M51.8706 20.3394C56.2342 22.7911 60.4427 25.5091 64.4723 28.478C64.7136 28.6196 64.9855 28.7011 65.265 28.7154C65.5444 28.7298 65.8232 28.6766 66.0777 28.5604C66.3323 28.4442 66.5551 28.2684 66.7273 28.0479C66.8996 27.8274 67.0162 27.5686 67.0672 27.2935C66.6228 24.7182 67.4908 22.0638 67.6433 19.5328C67.9081 17.1361 67.8862 14.7163 67.5781 12.3248C67.4335 12.1333 67.239 11.9853 67.0158 11.8971C66.7927 11.8088 66.5496 11.7838 66.3131 11.8246C66.0767 11.8654 65.856 11.9705 65.6754 12.1284C65.4947 12.2863 65.361 12.4909 65.289 12.7198C64.7337 15.0476 64.4036 17.4235 64.3033 19.8145C64.4439 20.2296 64.5189 20.664 64.5255 21.1022C64.1536 19.6639 63.6171 18.2734 62.9264 16.9582C61.383 13.7374 59.38 10.7579 56.98 8.11303C54.4358 5.46018 51.355 3.38059 47.9432 2.01305C44.5314 0.645517 40.8671 0.0215082 37.1949 0.182692C29.4091 0.592312 21.9577 3.4784 15.9272 8.42011C12.8423 11.0101 10.0352 13.9139 7.55121 17.0848C6.19963 18.6441 5.0158 20.3217 3.83197 21.9993C2.62673 23.5534 1.63322 25.2607 0.877489 27.0764C1.07501 28.221 1.29721 29.5087 3.0337 28.4723C4.1583 27.268 5.16582 25.9595 6.04264 24.5645L9.43141 20.2963C11.6753 17.1498 14.2338 14.24 17.0674 11.612C22.4392 7.01127 29.1178 4.20992 36.1643 3.60186C39.4652 3.38505 42.7735 3.89393 45.8567 5.09273C48.9398 6.29153 51.7229 8.15114 54.0103 10.5408C56.2484 12.8853 58.1439 15.5343 59.6408 18.4091C60.2607 19.5038 60.8017 20.6414 61.2595 21.8131C59.0644 20.1167 56.7763 18.5441 54.406 17.1025C52.0377 16.1852 49.7885 19.3727 51.8706 20.3394Z" fill="#FFD5CA"/>
</svg>
