<svg width="53" height="49" viewBox="0 0 53 49" fill="none" xmlns="http://www.w3.org/2000/svg">
<path opacity="0.25" d="M21.612 0.551758C10.5167 9.22625 0.430054 18.9094 0.430054 34.8463C0.430054 44.3277 5.6751 48.1606 11.7271 48.1606C16.7704 48.1606 21.612 43.5208 21.612 37.8723C21.612 32.2238 17.3756 28.1891 14.3496 28.1891C11.3236 28.1891 10.1132 25.97 10.1132 22.9441C10.1132 18.3042 11.7271 13.6644 24.0328 2.97254L21.612 0.551758ZM49.8545 0.551758C38.5575 9.22625 28.4709 18.9094 28.4709 34.8463C28.4709 44.3277 33.7159 48.1606 39.7679 48.1606C44.8112 48.1606 49.8545 43.5208 49.8545 37.8723C49.8545 32.2238 45.4164 28.1891 42.3904 28.1891C39.3644 28.1891 38.154 25.97 38.154 22.9441C38.154 18.3042 39.7679 13.6644 52.0736 2.97254L49.8545 0.551758Z" fill="#FF00D6"/>
</svg>
