<svg width="29" height="28" viewBox="0 0 29 28" fill="none" xmlns="http://www.w3.org/2000/svg">
<path d="M28.6517 20.2025C28.6414 18.2845 28.6414 16.3665 28.5898 14.4486C28.5692 13.6237 28.5074 12.7884 28.3217 11.9841C28.0227 10.6849 27.3215 9.62277 25.9913 9.18968C24.5271 8.72566 23.2175 9.15874 22.0317 10.0765C21.9698 10.1177 21.9182 10.2208 21.9182 10.293C21.9079 11.2004 21.9182 12.0975 21.9182 12.9947C22.3513 12.9122 22.7432 12.7987 23.135 12.7575C23.6609 12.7162 24.1559 12.8194 24.4549 13.3143C24.7539 13.8093 24.9499 14.3558 24.9499 14.9332C24.9705 17.1399 24.9705 19.3466 24.9499 21.5533C24.9395 22.5226 24.424 23.1722 23.5269 23.4919C23.4547 23.5228 23.3516 23.6259 23.3412 23.6981C23.3412 24.7911 23.3516 25.8738 23.3516 26.9669C23.3516 27.1525 23.4237 27.2246 23.63 27.235C25.5582 27.2556 27.4865 25.9254 28.1568 24.0899C28.6002 22.8319 28.662 21.512 28.6517 20.2025ZM24.7746 4.57009C25.7129 4.46697 26.6616 4.35354 27.5999 4.26074C27.7546 4.24012 27.8371 4.20918 27.8371 4.03388C27.8371 2.94086 27.8371 1.83752 27.8371 0.682617C26.3007 0.857914 24.8261 1.0229 23.3516 1.1982C21.6605 1.39412 20.0106 1.61066 18.3195 1.78596C18.2679 2.48715 18.2061 3.20896 18.1648 3.92046C18.1339 4.36385 18.1236 4.81756 18.0926 5.28159C19.031 5.17847 19.9384 5.08567 20.8355 4.99286C22.1451 4.85881 23.4547 4.71445 24.7746 4.57009ZM21.0211 15.8097C21.0624 13.9227 21.1139 12.046 21.1655 10.159C21.1964 9.08656 21.2377 8.00385 21.2686 6.93144C21.2789 6.61178 21.2686 6.29212 21.2686 5.96215C21.1139 5.96215 21.0108 5.96215 20.8974 5.96215C20.0622 6.0034 19.2166 6.06527 18.3814 6.08589C18.0823 6.0962 18.0205 6.20963 18.0102 6.46742C17.9998 7.05518 17.9689 7.65325 17.9483 8.24101C17.8658 10.5714 17.773 12.9122 17.6905 15.2426C17.6802 15.5519 17.6905 15.8613 17.6905 16.2325C18.7629 16.2016 19.7837 16.1603 20.8046 16.1294C21.0315 16.1191 21.0211 15.9747 21.0211 15.8097ZM22.3307 23.4403C21.5264 23.3475 21.1139 22.5741 21.083 21.8214C21.0521 20.9036 21.0315 19.9859 21.0108 19.0785C21.0108 18.8413 20.949 18.7588 20.6912 18.7588C19.7941 18.7898 18.897 18.8104 17.9998 18.8104C17.7627 18.8104 17.7111 18.9135 17.7214 19.1197C17.7421 19.6972 17.7317 20.2849 17.7421 20.8624C17.773 21.7595 17.7421 22.6566 17.8761 23.5331C18.0514 24.6571 18.5979 25.647 19.5569 26.3069C20.4024 26.8844 21.4027 27.1112 22.4854 27.2453C22.4854 26.0079 22.4854 24.8117 22.4751 23.6156C22.506 23.564 22.4029 23.4506 22.3307 23.4403ZM5.22378 21.3574C5.2341 20.9964 5.08973 20.883 4.72883 20.8727C3.42957 20.8108 3.04804 20.4087 3.0171 19.0991C2.99648 18.1092 3.0171 17.1193 2.99648 16.1191C2.98617 15.6963 2.94492 15.2735 2.91399 14.8507H0.0267439C0.0267439 16.3872 -0.0454373 17.872 0.047367 19.3466C0.243287 22.3679 1.8519 24.0693 4.68758 24.4096C5.08973 24.4611 5.2341 24.3477 5.22378 23.9456C5.21347 23.0794 5.21347 22.2235 5.22378 21.3574ZM0.0164323 13.7062H2.9243C2.9243 12.84 2.91399 12.0151 2.9243 11.2004C2.95524 9.51965 3.42957 8.99376 5.08973 8.79784C5.12067 8.79784 5.1516 8.75659 5.21347 8.71535V5.96215C3.24396 5.7353 1.07853 7.12736 0.367026 9.04532C-0.200111 10.5714 0.098925 12.1388 0.0164323 13.7062ZM5.83217 27.3175H9.12157V2.67275C7.98729 2.79649 6.91489 2.90992 5.83217 3.02335V27.3175ZM11.9676 10.1693C11.9779 10.788 11.9779 11.4067 11.9779 12.0254C11.9779 12.4481 11.9779 12.8606 11.9779 13.2731H15.2879C15.2879 11.8501 15.3498 10.4993 15.2673 9.15874C15.1951 7.9626 14.6176 6.983 13.5865 6.31274C12.5244 5.63218 11.3386 5.52906 10.1218 5.63218C10.0084 5.64249 9.82275 5.81779 9.82275 5.93122C9.80213 6.8077 9.81244 7.68419 9.81244 8.58129C10.0702 8.59161 10.2558 8.60192 10.4311 8.61223C11.5448 8.65348 11.9469 9.06594 11.9676 10.1693ZM15.3188 14.4486C14.3599 14.4486 13.4627 14.4692 12.5656 14.4383C12.1532 14.428 12.0088 14.5723 12.0191 14.9951C12.0294 16.1706 11.9985 17.3565 11.9985 18.532C11.9985 20.0375 11.4211 20.8521 9.98774 20.9964C9.93618 20.9964 9.89493 21.048 9.85369 21.0686V24.1518C12.6894 24.3065 14.4939 22.801 15.0714 20.6149C15.6076 18.5835 15.1951 16.5212 15.3188 14.4486Z" fill="url(#paint0_linear_40_1382)"/>
<defs>
<linearGradient id="paint0_linear_40_1382" x1="1.77961" y1="14.0019" x2="28.8594" y2="14.0019" gradientUnits="userSpaceOnUse">
<stop offset="0.0343547" stop-color="#273580"/>
<stop offset="0.2149" stop-color="#46317C"/>
<stop offset="0.6071" stop-color="#942673"/>
<stop offset="0.8615" stop-color="#CA1E6D"/>
</linearGradient>
</defs>
</svg>
