<svg width="120" height="38" viewBox="0 0 120 38" fill="none" xmlns="http://www.w3.org/2000/svg">
<path d="M29.6871 24.8484C29.727 23.4462 29.8641 22.0485 30.0976 20.6658C30.1672 20.2111 30.2215 19.7564 30.295 19.3056C30.3419 19.0608 30.3268 18.808 30.2509 18.5708C30.1751 18.3336 30.0411 18.1198 29.8614 17.9493C29.6643 17.7653 29.5415 17.5139 29.5168 17.2437C29.5171 17.0922 29.5478 16.9424 29.6071 16.8033C29.6664 16.6643 29.753 16.5389 29.8616 16.4347C29.9703 16.3306 30.0987 16.2499 30.2391 16.1976C30.3795 16.1453 30.5289 16.1224 30.6783 16.1304C31.2086 16.173 31.7032 16.4176 32.0624 16.8147C32.4217 17.2119 32.6188 17.7322 32.6142 18.2707C32.5723 19.4626 32.4429 20.6497 32.227 21.8222C32.055 22.7517 31.9655 23.6949 31.9599 24.6406C31.9599 24.7347 31.9599 24.8327 31.9599 24.9268C32.0683 25.8441 32.6375 26.2596 33.5086 26.0479C33.9528 25.9317 34.3692 25.7255 34.7325 25.4419C35.0959 25.1582 35.3987 24.803 35.6226 24.3976C36.2036 23.4074 36.5594 22.2987 36.6641 21.1519C36.819 19.9759 36.939 18.8234 37.0513 17.6553C37.0574 17.4387 37.1268 17.2287 37.2509 17.0522C37.375 16.8756 37.5481 16.7403 37.7482 16.6635C37.9338 16.5702 38.1418 16.5322 38.3479 16.5541C38.5541 16.576 38.7497 16.6568 38.9122 16.7872C39.0746 16.9175 39.197 17.0919 39.2651 17.29C39.3333 17.4882 39.3443 17.7019 39.297 17.9061C39.1072 19.7524 38.8517 21.5831 38.8478 23.4372C38.8394 24.0434 38.9005 24.6485 39.0298 25.2404C39.0661 25.4187 39.1288 25.5905 39.2157 25.75C39.2427 25.8388 39.2924 25.9188 39.3596 25.982C39.4269 26.0451 39.5094 26.0893 39.5989 26.11C39.6884 26.1306 39.7817 26.1271 39.8693 26.0996C39.957 26.0722 40.036 26.0219 40.0984 25.9538C40.4372 25.6763 40.7154 25.3306 40.9154 24.9385C41.7615 23.4021 42.4678 21.7909 43.0255 20.1248C43.3082 19.3408 43.5637 18.5569 43.7728 17.7729C43.7955 17.7124 43.8014 17.6468 43.7898 17.5832C43.7782 17.5196 43.7495 17.4605 43.707 17.4122C43.5079 17.1486 43.4053 16.8232 43.4166 16.4916C43.4279 16.1599 43.5524 15.8425 43.7689 15.5934C43.8764 15.4946 44.0026 15.4189 44.1398 15.3709C44.2771 15.323 44.4225 15.3037 44.5673 15.3144C44.7121 15.325 44.8533 15.3653 44.9823 15.4328C45.1112 15.5003 45.2253 15.5936 45.3176 15.7071C45.527 15.9981 45.7715 16.2615 46.0455 16.491C46.3599 16.7506 46.7296 16.9324 47.1255 17.0222C47.5213 17.112 47.9323 17.1073 48.326 17.0085L48.7132 16.9183C48.887 16.8583 49.0736 16.8473 49.2531 16.8866C49.4326 16.9259 49.5981 17.014 49.7318 17.1413C49.8656 17.2687 49.9625 17.4305 50.0123 17.6095C50.062 17.7884 50.0627 17.9777 50.0141 18.157C49.9233 18.5877 49.783 19.006 49.596 19.4036C48.9625 20.7289 48.4593 22.1141 48.0937 23.5391C47.9943 23.9545 47.9565 24.3825 47.9814 24.8092C48.086 26.1576 49.4488 26.483 50.3045 25.9577C50.9153 25.5515 51.4211 25.0031 51.7797 24.3584C52.3973 23.3401 52.916 22.2636 53.3284 21.144C53.4041 20.8896 53.5366 20.6562 53.7156 20.462C53.8578 20.3271 54.0413 20.2454 54.2356 20.2304C54.4299 20.2155 54.6234 20.2681 54.7842 20.3796C54.9744 20.4989 55.1173 20.6818 55.188 20.8967C55.2588 21.1115 55.2529 21.3447 55.1714 21.5556C54.9081 22.3004 54.6061 23.0334 54.2731 23.7508C53.7895 24.8804 53.1522 25.9359 52.3798 26.8868C51.7915 27.5833 50.9926 28.0638 50.107 28.2537C49.2214 28.4437 48.2987 28.3324 47.482 27.9373C46.9354 27.6539 46.4779 27.2215 46.1612 26.6888C45.8444 26.1562 45.681 25.5445 45.6893 24.9229C45.6196 23.5587 46.0533 22.2887 46.4908 21.0225C46.6939 20.427 46.9265 19.8422 47.1877 19.2703C47.2768 19.0704 47.2497 18.9959 47.0173 18.9645C46.5955 18.9057 46.1845 18.7842 45.7977 18.6039C45.6119 18.5177 45.5499 18.5647 45.4841 18.7529C44.8414 20.5717 44.2413 22.4063 43.4437 24.1585C42.921 25.3031 42.375 26.4477 41.4536 27.3376C40.6792 28.1215 39.7345 28.443 38.6504 28.0627C37.8373 27.7766 37.4424 27.0945 37.1481 26.334C37.09 26.1851 37.0474 26.0283 36.9971 25.8715C36.9971 25.8205 36.9971 25.7461 36.9197 25.7304C36.8422 25.7147 36.8113 25.797 36.7803 25.848C36.4944 26.2844 36.1519 26.6799 35.762 27.024C35.2107 27.5694 34.5192 27.9472 33.7662 28.1142C33.0132 28.2812 32.2291 28.2308 31.503 27.9687C30.9699 27.761 30.5109 27.3957 30.1857 26.9203C29.8604 26.4449 29.684 25.8814 29.6794 25.3031C29.6833 25.162 29.6871 25.0091 29.6871 24.8484Z" fill="#5929A6"/>
<path d="M66.3764 28.5138C64.9377 28.5801 63.5215 28.135 62.3729 27.2555C60.7893 26.0011 60.197 24.3391 60.437 22.3477C60.5207 21.559 60.7204 20.7874 61.0294 20.0585C61.1177 19.7596 61.3197 19.5084 61.5909 19.3603C61.8621 19.2122 62.1803 19.1792 62.4755 19.2686C62.7707 19.358 63.0188 19.5625 63.1651 19.8371C63.3114 20.1116 63.344 20.4338 63.2557 20.7327C63.186 21.1953 63.0156 21.6343 62.9072 22.089C62.7398 22.6278 62.7165 23.2019 62.8396 23.7527C62.9627 24.3036 63.2278 24.8116 63.608 25.225C64.162 25.838 64.9177 26.2254 65.7336 26.3147C66.9842 26.4754 68.1574 26.3147 69.1718 25.4484C69.7551 24.9393 70.144 24.2397 70.2713 23.4708C70.3986 22.7019 70.2562 21.9121 69.8687 21.2384C69.318 20.4244 68.6109 19.7311 67.7896 19.2C66.6874 18.4429 65.6311 17.6195 64.6263 16.7343C63.3835 15.5584 62.4968 14.1668 62.4891 12.344C62.4722 11.6717 62.6264 11.0063 62.937 10.4118C63.2476 9.81724 63.704 9.31362 64.2624 8.94932C65.2271 8.30492 66.3756 8.00267 67.5282 8.08992C68.6807 8.17717 69.7721 8.64899 70.6315 9.43147C70.9419 9.72506 71.1905 10.0792 71.3622 10.4727C71.5339 10.8661 71.6251 11.2906 71.6304 11.7207C71.6792 12.2537 71.6036 12.7908 71.4097 13.2887C71.3398 13.4648 71.2262 13.6196 71.0798 13.7381C70.9335 13.8566 70.7593 13.9349 70.5743 13.9652C70.3893 13.9956 70.1997 13.9771 70.0238 13.9114C69.848 13.8458 69.6919 13.7352 69.5706 13.5905C69.4332 13.442 69.3582 13.2452 69.3615 13.0417C69.3615 12.787 69.3615 12.5243 69.3848 12.2578C69.4131 11.9951 69.3754 11.7295 69.2753 11.4855C69.1751 11.2415 69.0156 11.0271 68.8117 10.8623C68.4433 10.5264 67.9852 10.3082 67.4948 10.2349C67.0043 10.1617 66.5035 10.2368 66.055 10.4507C65.6003 10.6427 65.235 11.003 65.0336 11.4582C64.8322 11.9134 64.8098 12.4293 64.9709 12.9006C65.2409 13.8032 65.7823 14.598 66.5196 15.1742C67.6812 16.1189 68.893 17.0048 70.0701 17.9182C70.8724 18.5128 71.5424 19.2714 72.0369 20.1447C72.4471 20.865 72.6815 21.674 72.7205 22.5044C72.7596 23.3349 72.6022 24.1628 72.2615 24.9192C71.3516 27.0164 69.6635 28.1296 67.4489 28.4472C67.0939 28.5008 66.7351 28.5231 66.3764 28.5138Z" fill="#5929A6"/>
<path d="M30.8681 31.4777C30.9756 31.4467 31.0897 31.4476 31.1967 31.4803C31.3038 31.5129 31.3993 31.576 31.4721 31.662C31.8089 32.0108 32.1729 32.3323 32.5252 32.6655C32.5252 32.6655 32.5562 32.6655 32.622 32.689C32.622 32.3519 32.622 32.0226 32.622 31.6933C32.622 31.5561 32.622 31.4542 32.8117 31.4542C33.0014 31.4542 33.0053 31.564 33.0053 31.7012C33.0053 32.0226 33.0053 32.3401 33.0053 32.7478L34.0739 31.7913C34.2869 31.5992 34.4611 31.3484 34.8483 31.4934C34.6247 31.7363 34.3882 31.9666 34.1397 32.1833C34.0468 32.2774 33.9461 32.3636 33.8493 32.4538C33.528 32.7517 33.528 32.7517 33.8222 33.0927L34.9528 34.3902C34.6586 34.453 34.4417 34.4647 34.252 34.2139C33.9732 33.8532 33.6558 33.5239 33.3538 33.1829C33.3034 33.1241 33.2763 32.9987 33.1679 33.0457C33.1158 33.068 33.0715 33.1057 33.0411 33.1541C33.0107 33.2024 32.9955 33.2589 32.9976 33.3162C32.9976 33.6063 32.9976 33.8924 32.9976 34.1786C32.9976 34.3275 32.9976 34.4334 32.7923 34.4295C32.5871 34.4255 32.6181 34.3079 32.6181 34.1825C32.6181 33.9042 32.6181 33.6298 32.6181 33.3515C32.6278 33.2901 32.6166 33.2271 32.5864 33.173C32.5561 33.1189 32.5086 33.0768 32.4516 33.0535C32.3355 33.0104 32.2929 33.1359 32.2387 33.2025C31.9483 33.5396 31.6657 33.8846 31.3753 34.2256C31.1933 34.449 31.1894 34.4451 30.7054 34.4059L31.3598 33.6219C31.5611 33.3789 31.747 33.1398 31.9715 32.9046C32.0644 32.8027 32.0722 32.7478 31.9715 32.6341C31.5921 32.2578 31.2398 31.8697 30.8681 31.4777Z" fill="#5929A6"/>
<path d="M95.2136 33.7694L96.1776 31.927C96.2628 31.7703 96.3209 31.488 96.4642 31.4998C96.6074 31.5115 96.6384 31.8016 96.6965 31.9702C96.9714 32.7542 97.2308 33.5813 97.4941 34.3888C97.1998 34.4868 97.0565 34.3888 96.9714 34.1026C96.8087 33.5186 96.5842 32.9266 96.3945 32.3347C96.2423 32.5079 96.1217 32.7069 96.0383 32.9227C95.7982 33.3578 95.5814 33.8047 95.3491 34.2398C95.3142 34.3065 95.291 34.4045 95.2058 34.4045C95.1206 34.4045 95.109 34.2986 95.0742 34.232C94.7412 33.6048 94.4121 32.9737 94.052 32.272C93.8275 32.9541 93.6222 33.5774 93.4132 34.2006C93.3822 34.2947 93.3745 34.4005 93.2273 34.4123C92.9602 34.4358 92.9253 34.4123 93.0105 34.1497C93.2777 33.3382 93.5487 32.5229 93.8236 31.7115C93.8507 31.6252 93.8468 31.4841 93.9514 31.4723C94.0559 31.4606 94.0946 31.6095 94.1411 31.6958C94.4934 32.3739 94.838 33.0442 95.2136 33.7694Z" fill="#5929A6"/>
<path d="M37.845 34.3784C37.845 33.4611 37.845 32.5477 37.845 31.6344C37.845 31.4894 37.9186 31.4619 38.0386 31.4619C38.1586 31.4619 38.2283 31.5442 38.2283 31.6775C38.2283 32.2028 38.2283 32.732 38.2283 33.2455C38.212 33.3523 38.2226 33.4615 38.2593 33.563L40.3075 31.4815C40.4701 31.5482 40.4391 31.6383 40.4391 31.7049C40.4391 32.5242 40.4391 33.3474 40.4391 34.1706C40.4391 34.3156 40.4391 34.4254 40.2339 34.4254C40.0287 34.4254 40.0558 34.3039 40.0558 34.1784V32.3165L37.9457 34.4528L37.845 34.3784Z" fill="#5929A6"/>
<path d="M73.2875 34.3936C73.001 34.472 72.8384 34.4249 72.7184 34.1309C72.4861 33.5508 72.2034 32.9902 71.9169 32.367C71.7381 32.6792 71.5791 33.0026 71.4407 33.3352C71.2936 33.6331 71.1503 33.9349 71.0303 34.2485C70.9451 34.4759 70.7709 34.4289 70.6083 34.421C70.4456 34.4132 70.5386 34.3348 70.5657 34.2799C70.9761 33.3861 71.3878 32.495 71.8008 31.6065C71.8511 31.4967 71.9208 31.4066 72.0021 31.583L73.2875 34.3936Z" fill="#5929A6"/>
<path d="M51.5241 32.9388C51.5241 33.3661 51.5241 33.7973 51.5241 34.2245C51.5241 34.3696 51.4893 34.4323 51.3344 34.4284C51.1795 34.4245 51.1408 34.3656 51.1408 34.2245C51.1408 33.3778 51.1408 32.5272 51.1408 31.6805C51.1408 31.5237 51.1873 31.4531 51.3499 31.4531C51.5125 31.4531 51.5241 31.555 51.5241 31.6805C51.5202 32.0999 51.5241 32.5194 51.5241 32.9388Z" fill="#5929A6"/>
<path d="M103.333 32.9271C103.333 33.3466 103.333 33.766 103.333 34.1894C103.333 34.3187 103.333 34.4285 103.147 34.4324C102.961 34.4363 102.946 34.354 102.946 34.205C102.946 33.3662 102.946 32.5273 102.946 31.6884C102.946 31.5473 102.946 31.4493 103.135 31.4532C103.325 31.4572 103.329 31.563 103.329 31.7002C103.329 32.1079 103.333 32.5195 103.333 32.9271Z" fill="#5929A6"/>
<path d="M118.653 20.337C118.158 20.1057 117.693 20.3096 117.414 20.8976C117.24 21.2661 117.089 21.6463 116.919 22.0187C116.269 23.5087 115.407 24.8941 114.36 26.1307C114.258 26.2821 114.117 26.4027 113.953 26.4796C113.953 26.3894 113.953 26.3228 113.953 26.2561C114.03 25.1899 114.104 24.1237 114.181 23.0575C114.251 22.1376 114.323 21.2229 114.398 20.3135C114.46 19.4942 114.526 18.675 114.58 17.8596C114.613 17.6156 114.565 17.3674 114.443 17.1544C114.321 16.9413 114.132 16.7757 113.907 16.6836C113.668 16.5847 113.405 16.5659 113.155 16.6301C112.906 16.6944 112.683 16.8382 112.52 17.0403C112.349 17.2933 112.263 17.5961 112.277 17.9027C112.191 18.8906 112.153 19.8862 112.025 20.8662C111.891 22.1358 111.484 23.3602 110.832 24.453C110.602 24.8674 110.288 25.2284 109.911 25.5127C109.534 25.7969 109.103 25.9981 108.645 26.1033C107.971 26.2405 107.429 25.9935 107.239 25.4486C107.116 25.07 107.068 24.6701 107.1 24.2727C107.243 22.4107 107.665 20.5801 107.809 18.7142C107.905 17.4598 107.259 16.4994 106.26 16.2172C105.952 16.1142 105.617 16.1281 105.319 16.2564C105.157 16.3213 105.015 16.4278 104.906 16.5653C104.797 16.7028 104.726 16.8666 104.698 17.0406C104.671 17.2146 104.689 17.3928 104.75 17.5577C104.811 17.7226 104.914 17.8686 105.048 17.9811C105.183 18.0882 105.293 18.2242 105.37 18.3794C105.447 18.5346 105.489 18.7052 105.493 18.8788C105.489 19.6041 105.388 20.3255 105.191 21.023C104.736 22.4271 104.066 23.75 103.205 24.943C102.883 25.4323 102.436 25.8239 101.912 26.0758C101.704 26.1761 101.477 26.2263 101.247 26.2225C101.017 26.2187 100.791 26.161 100.587 26.0539C100.383 25.9467 100.206 25.7931 100.07 25.6051C99.9348 25.4171 99.8441 25.1999 99.8055 24.9704C99.7516 24.592 99.7661 24.2068 99.8481 23.8336C100.165 22.4242 100.638 21.0554 101.257 19.753C101.517 19.2329 101.712 18.6826 101.838 18.1144C101.875 17.9431 101.868 17.765 101.818 17.5973C101.767 17.4295 101.675 17.2777 101.549 17.1565C101.424 17.0353 101.27 16.9487 101.103 16.905C100.935 16.8613 100.759 16.862 100.591 16.9071L100.235 16.9933C99.7077 17.142 99.1477 17.1237 98.6307 16.9408C98.1137 16.7579 97.6644 16.4192 97.343 15.9702C97.239 15.8313 97.1251 15.7003 97.0023 15.5782C96.8979 15.4809 96.7748 15.4066 96.6407 15.3597C96.5066 15.3129 96.3644 15.2946 96.223 15.306C96.0816 15.3174 95.9441 15.3583 95.819 15.426C95.6939 15.4938 95.584 15.587 95.4962 15.6997C95.317 15.9479 95.2221 16.2482 95.2256 16.5556C95.2291 16.863 95.3308 17.1609 95.5155 17.4049C95.5607 17.458 95.591 17.5223 95.6032 17.5913C95.6155 17.6602 95.6092 17.7312 95.5852 17.7969C95.2862 18.8724 94.9308 19.931 94.5205 20.9681C94.3154 21.5288 94.011 22.0469 93.6222 22.4969C93.2015 22.9771 92.6692 23.3436 92.0735 23.5631C92.0564 23.525 92.0475 23.4835 92.0475 23.4416C92.0475 23.3997 92.0564 23.3583 92.0735 23.3201C92.3495 22.0947 92.3202 20.819 91.9883 19.6079C91.7095 18.671 91.3262 17.7655 90.5325 17.1697C89.8619 16.6357 89.0534 16.3089 88.2039 16.2282C87.3545 16.1476 86.5001 16.3166 85.7431 16.715C84.1673 17.4637 83.1993 18.8122 82.6456 20.4546C82.4753 20.9564 82.3785 21.4895 82.2043 21.9912C81.9411 22.6769 81.6346 23.3447 81.2866 23.9904C80.9365 24.7391 80.4132 25.3913 79.7611 25.8916C79.5474 26.0566 79.2948 26.1625 79.0284 26.1987C78.7619 26.235 78.4907 26.2004 78.2415 26.0984C77.9922 25.9963 77.7735 25.8303 77.6069 25.6168C77.4402 25.4032 77.3313 25.1494 77.2909 24.8802C77.1736 24.1165 77.1489 23.3412 77.2174 22.5714C77.3335 20.6114 77.7246 18.6514 77.9917 16.6915C78.0304 16.4406 78.1427 16.4328 78.3324 16.4602C78.9752 16.5582 79.6218 16.6483 80.2684 16.7385C80.3849 16.7699 80.5065 16.777 80.6258 16.7594C80.7451 16.7417 80.8597 16.6998 80.9625 16.636C81.0653 16.5722 81.1543 16.488 81.224 16.3883C81.2937 16.2887 81.3426 16.1758 81.3679 16.0564C81.4918 15.4096 81.2557 14.9863 80.64 14.8452C80.129 14.7238 79.6121 14.6296 79.0913 14.5629C78.2705 14.4532 78.286 14.4689 78.3944 13.6417C78.5363 12.7069 78.6242 11.7646 78.6577 10.8194C78.6724 10.6692 78.6557 10.5176 78.6085 10.3745C78.5612 10.2313 78.4847 10.0999 78.3838 9.98886C78.2828 9.8778 78.1599 9.78961 78.0229 9.73007C77.8859 9.67053 77.7381 9.64099 77.5891 9.64339C77.4331 9.62752 77.2756 9.64489 77.1267 9.69437C76.9777 9.74385 76.8407 9.82436 76.7244 9.9307C76.608 10.037 76.5149 10.1669 76.4512 10.3118C76.3874 10.4568 76.3543 10.6136 76.354 10.7723C76.3152 11.8699 76.1913 12.9597 76.0597 14.0494C76.0365 14.2376 75.9668 14.2964 75.7925 14.2925C75.5002 14.2735 75.2067 14.288 74.9175 14.3356C74.6813 14.3718 74.4663 14.4942 74.313 14.6798C74.1597 14.8653 74.0786 15.1012 74.0851 15.343C74.1039 15.604 74.2216 15.8475 74.4134 16.0228C74.6053 16.1981 74.8566 16.2916 75.115 16.2838C75.2439 16.2925 75.3732 16.2925 75.5022 16.2838C75.7229 16.2603 75.7538 16.3661 75.7267 16.5543C75.448 18.3653 75.1343 20.1685 74.9524 21.9952C74.8199 23.0766 74.8487 24.172 75.0375 25.2448C75.1834 26.1829 75.6727 27.0309 76.4082 27.6203C77.2051 28.1857 78.1812 28.4306 79.1467 28.3074C80.1122 28.1843 80.9978 27.7018 81.6312 26.9539C81.9662 26.535 82.2727 26.0937 82.5488 25.6329L82.6882 25.919C82.9699 26.5804 83.4056 27.1628 83.9582 27.6164C85.2669 28.6356 87.5977 28.7296 89.1464 27.832C89.9335 27.3687 90.5926 26.7121 91.0629 25.923C91.1404 25.7975 91.1985 25.6721 91.3882 25.6407C93.8042 25.2801 95.4226 23.9081 96.2821 21.611C96.6383 20.6545 96.9791 19.6942 97.3159 18.7298C97.3779 18.5574 97.4437 18.5378 97.5986 18.6044C97.9731 18.762 98.3622 18.8814 98.7601 18.9611C99.0969 19.0317 99.0969 19.0278 98.9614 19.3531C98.3381 20.8623 97.7341 22.3754 97.5366 24.0139C97.3585 25.5074 97.7225 26.801 98.9963 27.6909C100.518 28.7492 102.868 28.3925 104.119 26.9617C104.39 26.6521 104.63 26.3149 104.893 25.9778C104.932 26.0915 104.959 26.1621 104.982 26.2366C105.169 26.8176 105.535 27.3222 106.028 27.6754C106.52 28.0285 107.112 28.2113 107.716 28.1965C108.422 28.1954 109.12 28.0359 109.758 27.7296C110.397 27.4232 110.961 26.9776 111.409 26.4247C111.463 26.3659 111.491 26.2601 111.626 26.3032C111.58 26.9069 111.537 27.5145 111.491 28.122C111.491 28.2632 111.378 28.3259 111.266 28.3886C110.522 28.7829 109.798 29.216 109.098 29.6861C108.369 30.135 107.726 30.7141 107.201 31.3952C106.98 31.6813 106.826 32.0147 106.751 32.37C106.676 32.7252 106.682 33.0931 106.769 33.4457C106.855 33.7982 107.02 34.1261 107.251 34.4046C107.481 34.683 107.771 34.9046 108.099 35.0525C108.553 35.2702 109.049 35.3831 109.551 35.3831C110.053 35.3831 110.549 35.2702 111.003 35.0525C111.998 34.6174 112.551 33.7511 112.966 32.8103C113.382 31.7707 113.634 30.6715 113.713 29.5528C113.718 29.4829 113.738 29.415 113.773 29.3545C113.808 29.294 113.856 29.2425 113.914 29.204C114.809 28.561 115.61 27.7929 116.292 26.9225C117.474 25.3193 118.427 23.5549 119.122 21.6816C119.183 21.5631 119.22 21.433 119.23 21.2995C119.239 21.1661 119.222 21.032 119.178 20.9058C119.134 20.7796 119.064 20.6639 118.974 20.566C118.884 20.4681 118.775 20.3902 118.653 20.337ZM88.585 25.4957C88.2909 25.8091 87.9252 26.0445 87.5201 26.1812C87.115 26.3179 86.6829 26.3517 86.2619 26.2797C85.9084 26.2214 85.5772 26.0664 85.3043 25.8315C85.0314 25.5966 84.827 25.2908 84.7132 24.9469C84.0201 23.226 84.6319 20.3841 85.9599 19.1022L86.107 18.9807C85.7519 20.1542 85.7955 21.4143 86.2309 22.5596C86.6715 23.6694 87.4882 24.5839 88.5347 25.139C88.7282 25.2605 88.767 25.3193 88.585 25.4957ZM90.0176 21.3484C90.0125 22.0082 89.9359 22.6655 89.7891 23.3083C89.7078 23.6337 89.7001 23.6415 89.4019 23.4651C88.9529 23.1969 88.572 22.8261 88.2897 22.3824C88.0074 21.9386 87.8314 21.4342 87.7758 20.9093C87.685 20.3508 87.7452 19.7779 87.95 19.2512C87.9871 19.0782 88.0756 18.9208 88.2036 18.8003C88.3317 18.6797 88.4932 18.6018 88.6663 18.577C88.8331 18.5728 88.9977 18.6167 89.1409 18.7034C89.2842 18.7901 89.4002 18.9162 89.4755 19.067C89.7438 19.5128 89.9043 20.0164 89.944 20.5369C89.9899 20.805 90.0145 21.0763 90.0176 21.3484ZM110.379 32.9749C110.257 33.1026 110.103 33.1943 109.933 33.2406C109.763 33.2868 109.584 33.2858 109.415 33.2376C109.331 33.2241 109.251 33.1912 109.182 33.1413C109.112 33.0915 109.055 33.0261 109.015 32.9503C108.974 32.8744 108.952 32.7902 108.949 32.704C108.946 32.6179 108.962 32.5322 108.997 32.4536C109.096 32.1833 109.26 31.9422 109.473 31.7519C110.029 31.2431 110.65 30.8132 111.32 30.474C111.154 31.4226 111.049 32.2968 110.379 32.9749Z" fill="#5929A6"/>
<path d="M83.9776 32.1519C83.8254 31.8939 83.6011 31.6873 83.3331 31.5582C83.065 31.4292 82.7652 31.3834 82.4715 31.4267C82.258 31.4631 82.0561 31.5503 81.8824 31.6811C81.7088 31.812 81.5683 31.9827 81.4725 32.1793C81.4222 31.3248 81.8597 30.7995 82.6651 30.7525C83.0603 30.742 83.4546 30.708 83.846 30.6505C84.0047 30.6231 84.0047 30.5212 84.0008 30.3997C83.997 30.2781 83.8731 30.2938 83.7956 30.2977C83.4084 30.2977 82.9864 30.3291 82.5837 30.3722C82.3078 30.3685 82.0367 30.4462 81.8036 30.5958C81.5705 30.7455 81.3855 30.9607 81.2712 31.215C81.0451 31.8152 80.9979 32.4695 81.1357 33.0966C81.1673 33.4084 81.292 33.7031 81.4934 33.9412C81.6947 34.1794 81.963 34.3497 82.2624 34.4294C82.5452 34.5162 82.847 34.516 83.1297 34.4287C83.4123 34.3415 83.663 34.1712 83.8498 33.9394C84.0531 33.6924 84.1748 33.3871 84.1978 33.0664C84.2207 32.7458 84.1437 32.4259 83.9776 32.1519ZM82.6844 34.1393C82.3811 34.1321 82.0925 34.0051 81.8805 33.7853C81.6685 33.5655 81.5499 33.2705 81.55 32.9633C81.55 32.6587 81.6695 32.3666 81.8822 32.1512C82.095 31.9358 82.3835 31.8148 82.6844 31.8148C82.9853 31.8148 83.2738 31.9358 83.4866 32.1512C83.6993 32.3666 83.8189 32.6587 83.8189 32.9633C83.8189 33.2705 83.7003 33.5655 83.4883 33.7853C83.2763 34.0051 82.9878 34.1321 82.6844 34.1393Z" fill="#5929A6"/>
<path d="M67.6269 31.6302C67.6269 31.4891 67.5456 31.4616 67.4256 31.4577C67.3056 31.4538 67.2397 31.5087 67.2436 31.6459C67.2475 31.7831 67.2746 31.8301 67.2126 31.9163C66.3686 31.2343 65.5633 31.2304 64.9244 31.9163C64.6665 32.194 64.5211 32.5596 64.5168 32.9408C64.5125 33.3219 64.6497 33.6907 64.9012 33.9743C65.4974 34.6486 66.3686 34.6642 67.2475 33.9743C67.2475 34.1037 67.2475 34.1899 67.2475 34.2722C67.2475 34.3546 67.3094 34.433 67.4217 34.433C67.534 34.433 67.6308 34.433 67.6308 34.2722C67.6256 33.3916 67.6243 32.5109 67.6269 31.6302ZM66.0472 34.139C65.8917 34.139 65.7378 34.1075 65.5945 34.0462C65.4513 33.9849 65.3217 33.8951 65.2133 33.7821C65.105 33.6692 65.0202 33.5353 64.9639 33.3886C64.9076 33.2418 64.881 33.0851 64.8857 32.9277C64.8895 32.7717 64.9236 32.618 64.9861 32.4754C65.0486 32.3328 65.1382 32.204 65.2498 32.0964C65.3615 31.9889 65.4929 31.9046 65.6367 31.8485C65.7805 31.7924 65.9338 31.7655 66.0879 31.7693C66.2419 31.7732 66.3937 31.8078 66.5346 31.871C66.6755 31.9343 66.8027 32.025 66.9089 32.138C67.0152 32.251 67.0984 32.3841 67.1538 32.5297C67.2092 32.6753 67.2358 32.8305 67.232 32.9865C67.229 33.1409 67.1959 33.2933 67.1348 33.4348C67.0736 33.5763 66.9855 33.7042 66.8754 33.8112C66.7654 33.9182 66.6356 34.0023 66.4935 34.0585C66.3514 34.1147 66.1998 34.1421 66.0472 34.139Z" fill="#5929A6"/>
<path d="M55.3107 32.9744C55.6515 32.9744 55.9922 32.9744 56.329 32.9744C56.6659 32.9744 57.0298 32.9744 57.3783 32.9744C57.6067 32.9744 57.6803 32.9117 57.6416 32.6765C57.5945 32.3757 57.4582 32.0965 57.2507 31.8759C57.0433 31.6554 56.7745 31.5039 56.48 31.4417C56.1806 31.3642 55.8646 31.3846 55.5773 31.5001C55.2901 31.6156 55.0463 31.8202 54.881 32.0846C54.7693 32.2567 54.6923 32.4495 54.6542 32.6518C54.6162 32.8542 54.6179 33.0621 54.6592 33.2638C54.7006 33.4655 54.7808 33.6569 54.8952 33.8272C55.0097 33.9975 55.1561 34.1433 55.3262 34.2562C55.6648 34.4604 56.0676 34.5263 56.4524 34.4403C56.8373 34.3544 57.1753 34.1231 57.3976 33.7937C57.4364 33.727 57.5293 33.6525 57.448 33.5702C57.3908 33.5068 57.3146 33.4641 57.2312 33.4487C57.115 33.4487 57.0918 33.5898 57.0298 33.6682C56.9019 33.8414 56.7283 33.9744 56.5289 34.0521C56.3296 34.1298 56.1127 34.1489 55.9031 34.1073C55.7027 34.0742 55.5162 33.9823 55.3668 33.8429C55.2175 33.7035 55.1118 33.5229 55.0629 33.3233C54.9816 33.0293 55.0204 32.9783 55.3107 32.9744ZM55.1133 32.4726C55.1883 32.2663 55.3238 32.0882 55.5017 31.9621C55.6795 31.836 55.8912 31.7679 56.1083 31.767C56.335 31.748 56.5619 31.7998 56.7586 31.9154C56.9552 32.0311 57.112 32.2051 57.2079 32.4138C57.2776 32.5824 57.2583 32.6569 57.0569 32.649C56.7549 32.649 56.4529 32.649 56.1548 32.649H55.2488C55.1249 32.649 55.0552 32.6373 55.1133 32.4726Z" fill="#5929A6"/>
<path d="M45.5228 33.3114C45.4362 33.1083 45.2812 32.943 45.0853 32.8449C45.1022 32.816 45.1231 32.7896 45.1473 32.7665C45.2627 32.6776 45.3461 32.5526 45.3845 32.411C45.423 32.2693 45.4145 32.1188 45.3602 31.9826C45.319 31.849 45.2404 31.7305 45.1338 31.6414C45.0272 31.5523 44.8974 31.4965 44.7601 31.4808C44.45 31.4509 44.1383 31.4404 43.827 31.4494C43.6876 31.4494 43.6489 31.5239 43.6489 31.6494C43.6489 32.5118 43.6489 33.3702 43.6489 34.2326C43.6489 34.3189 43.6489 34.4169 43.7728 34.4129C44.1786 34.4451 44.5867 34.428 44.9885 34.362C45.0959 34.3352 45.1963 34.2854 45.2831 34.216C45.3699 34.1466 45.441 34.0592 45.4916 33.9597C45.5422 33.8602 45.5712 33.7508 45.5766 33.639C45.582 33.5272 45.5636 33.4155 45.5228 33.3114ZM44.4348 31.8258C44.6129 31.8258 44.791 31.8258 44.9188 31.9865C44.969 32.0555 45.001 32.1364 45.0118 32.2214C45.0227 32.3064 45.012 32.3929 44.9808 32.4726C44.952 32.5435 44.9032 32.6044 44.8406 32.6476C44.778 32.6908 44.7042 32.7144 44.6284 32.7156C44.0515 32.7901 44.0283 32.7744 44.0283 32.2138C44.0322 31.8218 44.0322 31.8218 44.4348 31.8258ZM44.8878 34.0131C44.6374 34.0914 44.373 34.1128 44.1135 34.0758C44.0244 34.0758 44.0128 34.0053 44.0128 33.9347V33.5937C44.0128 33.0488 44.0128 33.0488 44.6129 33.0919C44.6866 33.0891 44.7599 33.1033 44.8272 33.1335C44.8946 33.1637 44.9543 33.2091 45.0017 33.2662C45.0492 33.3232 45.0831 33.3905 45.1009 33.4629C45.1188 33.5353 45.12 33.6109 45.1047 33.6838C45.1006 33.7532 45.0784 33.8203 45.0403 33.8782C45.0022 33.9361 44.9496 33.9826 44.8878 34.0131Z" fill="#5929A6"/>
<path d="M88.6895 31.4023C88.2889 31.4033 87.9048 31.5638 87.6201 31.8491C87.3354 32.1344 87.173 32.5217 87.1679 32.9272C87.1589 33.1319 87.1914 33.3363 87.2633 33.5278C87.3353 33.7193 87.4452 33.8939 87.5863 34.0408C87.7274 34.1876 87.8966 34.3037 88.0837 34.3819C88.2708 34.46 88.4717 34.4986 88.674 34.4952C88.8753 34.5004 89.0755 34.4649 89.2629 34.3906C89.4503 34.3164 89.6212 34.2049 89.7655 34.0629C89.9098 33.9208 90.0246 33.751 90.1031 33.5634C90.1816 33.3757 90.2223 33.1741 90.2228 32.9703C90.2228 32.5572 90.0617 32.1607 89.7746 31.8671C89.4875 31.5735 89.0976 31.4065 88.6895 31.4023ZM88.6895 34.1463C88.3815 34.1385 88.0891 34.0071 87.8767 33.7811C87.6643 33.555 87.5493 33.2528 87.557 32.9409C87.5647 32.629 87.6945 32.333 87.9178 32.118C88.141 31.903 88.4396 31.7865 88.7476 31.7943C89.0557 31.8021 89.3481 31.9335 89.5604 32.1596C89.7728 32.3856 89.8878 32.6878 89.8801 32.9997C89.8724 33.3116 89.7427 33.6076 89.5194 33.8227C89.2961 34.0377 88.9976 34.1541 88.6895 34.1463Z" fill="#5929A6"/>
<path d="M77.6085 32.7076C77.3551 32.6464 77.0937 32.6266 76.8342 32.6488C76.6754 32.6488 76.6135 32.6018 76.6212 32.4371C76.6212 32.1902 76.6212 31.9393 76.6212 31.6924C76.6212 31.5512 76.6212 31.4493 76.4315 31.4532C76.2418 31.4572 76.2379 31.5591 76.2379 31.7002C76.2379 32.1196 76.2379 32.5391 76.2379 32.9585C76.2379 33.3779 76.2379 33.7817 76.2379 34.1894C76.2379 34.2874 76.2031 34.4246 76.3695 34.4206C76.7829 34.4539 77.1988 34.4382 77.6085 34.3736C77.7878 34.3265 77.9469 34.2214 78.0616 34.0741C78.1762 33.9269 78.2401 33.7457 78.2435 33.5583C78.2452 33.3654 78.1838 33.1774 78.0689 33.0236C77.9541 32.8697 77.7922 32.7586 77.6085 32.7076ZM77.384 34.0718C77.1794 34.0914 76.9738 34.0993 76.7683 34.0953C76.6406 34.0953 76.6096 34.0247 76.6135 33.915V33.523C76.6135 32.9507 76.6135 32.9546 77.1749 32.982C77.442 32.982 77.6821 33.0526 77.7866 33.3466C77.8193 33.4204 77.8345 33.5009 77.8309 33.5817C77.8273 33.6626 77.805 33.7414 77.7658 33.8119C77.7267 33.8824 77.6717 33.9427 77.6054 33.9878C77.5391 34.0329 77.4632 34.0617 77.384 34.0718Z" fill="#5929A6"/>
<path d="M49.9947 32.688C49.7408 32.6305 49.4795 32.6133 49.2203 32.6371C49.0577 32.6371 48.9997 32.5861 49.0074 32.4215C49.0074 32.1863 49.0074 31.9472 49.0074 31.708C49.0074 31.5708 49.0074 31.4376 48.8138 31.4415C48.6202 31.4454 48.6241 31.5826 48.6241 31.7159V33.7503C48.6241 34.4128 48.6241 34.4128 49.3171 34.4128C49.536 34.4239 49.7554 34.4107 49.9715 34.3736C50.1588 34.3285 50.3255 34.2208 50.4449 34.0679C50.5642 33.9149 50.6291 33.7257 50.6291 33.5308C50.6291 33.3359 50.5642 33.1467 50.4449 32.9938C50.3255 32.8409 50.1588 32.7331 49.9715 32.688H49.9947ZM50.2193 33.7621C50.1985 33.8158 50.1672 33.8646 50.1273 33.9057C50.0873 33.9468 50.0396 33.9793 49.987 34.0012C49.8816 34.0388 49.7726 34.0651 49.6617 34.0796C49.0268 34.1423 49.0268 34.1384 49.0268 33.4799C49.0616 33.3309 48.93 33.0879 49.0887 33.0016C49.3405 32.92 49.6112 32.92 49.8631 33.0016C49.9421 33.0201 50.016 33.0565 50.0791 33.1082C50.1421 33.1599 50.1928 33.2254 50.2271 33.2998C50.2614 33.3743 50.2786 33.4556 50.2772 33.5378C50.2758 33.6199 50.256 33.7006 50.2193 33.7739V33.7621Z" fill="#5929A6"/>
<path d="M101.792 32.6882C101.55 32.6378 101.302 32.6246 101.056 32.649C100.882 32.649 100.82 32.5902 100.828 32.4178C100.835 32.2453 100.828 31.9591 100.828 31.7318C100.828 31.5946 100.847 31.4613 100.642 31.4535C100.437 31.4456 100.448 31.5789 100.448 31.7161V34.2092C100.448 34.2993 100.417 34.4248 100.568 34.4209C100.982 34.4542 101.397 34.4384 101.807 34.3738C101.993 34.3315 102.158 34.2241 102.272 34.0705C102.387 33.917 102.445 33.7273 102.434 33.535C102.439 33.3407 102.378 33.1508 102.261 32.9968C102.144 32.8427 101.978 32.7338 101.792 32.6882ZM101.71 34.0289C101.472 34.0843 101.227 34.1028 100.983 34.0837C100.874 34.0837 100.835 34.0171 100.835 33.9191C100.835 33.7466 100.835 33.5741 100.835 33.4017C100.835 32.9587 100.835 32.9587 101.285 32.9626C101.823 32.9626 102.059 33.1194 102.059 33.5036C102.078 33.621 102.053 33.7415 101.988 33.8409C101.924 33.9404 101.824 34.0117 101.71 34.0406V34.0289Z" fill="#5929A6"/>
<path d="M29.2148 4.37054C29.1327 3.69105 28.8286 3.05885 28.3508 2.57445C27.8731 2.09004 27.2491 1.78124 26.5781 1.69713C25.9199 1.64225 25.2616 1.58345 24.6034 1.53249C22.714 1.3966 20.8246 1.25025 18.9351 1.09346C17.7736 1.0033 16.612 0.928819 15.4505 0.84258L9.82089 0.403545C8.85293 0.329066 7.88498 0.266347 6.91703 0.172268C6.23234 0.0737259 5.53432 0.193218 4.91969 0.514189C4.30505 0.83516 3.80423 1.34172 3.48661 1.96369C3.09162 2.68538 2.87011 3.49113 2.84002 4.31566C2.77807 5.22901 2.71612 6.14628 2.6503 7.05962C2.54189 8.46297 2.42961 9.87023 2.32507 11.2775C2.25925 12.1712 2.20117 13.065 2.13535 13.9587C2.03081 15.366 1.93789 16.7733 1.81399 18.1844C1.72881 19.3369 1.65525 20.4855 1.5662 21.6379C1.44617 23.2725 1.31453 24.9072 1.17902 26.5457C1.12094 27.4551 1.05899 28.3763 0.989298 29.2779C0.915734 30.2697 0.834426 31.2379 0.776349 32.0219C0.723239 32.9441 0.917211 33.8637 1.33776 34.6835C1.55657 35.1533 1.88869 35.5596 2.30349 35.8652C2.71829 36.1707 3.2024 36.3656 3.71118 36.4318C4.64041 36.5337 5.57352 36.5808 6.50662 36.6513L12.5699 37.1139L17.1154 37.4549C19.2294 37.6157 21.3473 37.7607 23.4613 37.941C24.1076 38.0423 24.769 37.9339 25.3507 37.6313C25.8726 37.315 26.307 36.8703 26.6137 36.3385C26.9203 35.8067 27.0892 35.205 27.1046 34.5894C27.2014 33.5154 27.2595 32.4374 27.3408 31.3633C27.4828 29.4687 27.6273 27.5767 27.7745 25.6872C27.8635 24.5113 27.9332 23.3078 28.0222 22.1201C28.1423 20.4933 28.2778 18.8665 28.4094 17.2437C28.4985 16.0677 28.572 14.8917 28.6572 13.7157C28.7811 12.0536 28.9102 10.3903 29.0444 8.7256C29.0986 8.02393 29.1683 7.31834 29.207 6.61667C29.2901 5.87046 29.2927 5.11731 29.2148 4.37054ZM25.9779 33.7035C25.947 34.0955 25.916 34.4875 25.854 34.8795C25.8272 35.128 25.7508 35.3684 25.6295 35.5861C25.5081 35.8039 25.3444 35.9944 25.1482 36.1461C24.952 36.2979 24.7273 36.4077 24.488 36.4689C24.2486 36.5302 23.9994 36.5415 23.7555 36.5024C22.8456 36.4201 21.9319 36.3534 21.022 36.2829L16.4533 35.934L10.8663 35.542L6.35175 35.1696C5.60062 35.1147 4.84949 35.0638 4.09836 34.9971C3.63123 34.966 3.18617 34.7845 2.82814 34.4792C2.47011 34.1738 2.21787 33.7606 2.10825 33.2998C1.93533 32.775 1.91077 32.2117 2.03734 31.6735C2.16391 31.1353 2.43657 30.6436 2.82453 30.254C3.0743 30.0115 3.37672 29.8317 3.70753 29.7289C4.03834 29.6261 4.38834 29.6032 4.72946 29.6621C5.6587 29.7444 6.5918 29.811 7.52103 29.8816L12.0627 30.2265L16.8869 30.5793L22.1913 30.9713L24.0072 31.1203C24.7684 31.2252 25.5412 31.0439 26.1793 30.6107C26.1212 31.6848 26.0554 32.6883 25.9779 33.7035ZM28.0532 5.6602C27.9642 6.58923 27.9216 7.5261 27.8519 8.45905C27.7512 9.82711 27.6389 11.203 27.5383 12.5632C27.4686 13.4883 27.4105 14.4095 27.3408 15.3346C27.2363 16.7223 27.1279 18.11 27.0233 19.4976C26.9614 20.3639 26.9033 21.2303 26.8413 22.0966C26.7252 23.6384 26.6103 25.1789 26.4968 26.7182C26.4938 27.2909 26.4143 27.8605 26.2606 28.4116C26.1687 28.7639 25.9697 29.078 25.6918 29.3094C25.4138 29.5409 25.071 29.678 24.7119 29.7013C24.2872 29.701 23.8631 29.6735 23.4419 29.6189L17.7271 29.1995L13.9405 28.9134L8.90714 28.5214C7.68365 28.4273 6.46016 28.3332 5.23667 28.247C5.0818 28.247 5.0121 28.2078 5.02759 28.0118C5.11277 27.071 5.17085 26.1263 5.24054 25.1855C5.30765 24.3126 5.37605 23.4385 5.44575 22.563C5.45395 22.4391 5.44218 22.3147 5.4109 22.1946C5.33346 21.8692 5.14375 21.6889 4.88046 21.685C4.74752 21.6884 4.61949 21.7365 4.51648 21.8217C4.41346 21.9068 4.34129 22.0242 4.31131 22.1554C4.23502 22.5252 4.19996 22.9026 4.20677 23.2804C4.079 24.8484 3.97059 26.3732 3.87379 27.9138C3.87649 27.9701 3.86195 28.026 3.83215 28.0737C3.80236 28.1214 3.75876 28.1586 3.70731 28.1803C3.28141 28.3842 2.85551 28.5723 2.42961 28.7997C2.29022 28.8702 2.23989 28.8271 2.24763 28.6821C2.24763 28.6037 2.24763 28.5292 2.24763 28.4508C2.39993 26.4177 2.5548 24.3832 2.71225 22.3474C2.84776 20.4619 2.97941 18.5804 3.09943 16.6949C3.20784 15.1818 3.324 13.6726 3.43628 12.1595C3.57179 10.3524 3.69956 8.54529 3.82346 6.73819C3.88928 5.86404 3.94736 4.98597 4.04028 4.11574C4.05838 3.68879 4.1724 3.27163 4.37367 2.896C4.57495 2.52037 4.85818 2.19615 5.20182 1.94801C5.3567 1.84217 5.55416 1.67361 5.70903 1.75201C5.8639 1.83041 5.75936 2.0852 5.74388 2.25376C5.63159 3.86878 5.49608 5.4838 5.35669 7.10274C5.29087 7.95729 5.23667 8.81576 5.17472 9.67031C5.06244 11.2109 4.94241 12.7514 4.834 14.2919C4.78754 14.9779 4.70236 15.66 4.7101 16.3499C4.7101 16.7654 4.89982 17.0163 5.22893 17.0516C5.30717 17.0553 5.38536 17.0431 5.4589 17.0158C5.53244 16.9885 5.59985 16.9466 5.65719 16.8925C5.71453 16.8385 5.76063 16.7734 5.7928 16.7011C5.82498 16.6288 5.84257 16.5507 5.84454 16.4714C5.92198 15.856 5.9607 15.2366 6.00716 14.6173C6.12331 13.0885 6.23689 11.5584 6.34788 10.027C6.48339 8.13369 6.6189 6.23643 6.75829 4.34702C6.81637 3.51991 6.8938 2.6928 6.95575 1.86569C6.95575 1.68929 7.0177 1.65793 7.1958 1.67361C8.39219 1.77553 9.58471 1.85001 10.7811 1.94017C12.2214 2.04601 13.6578 2.16752 15.0982 2.27336L20.6852 2.66536C22.1797 2.77512 23.6742 2.88096 25.1687 3.01423C25.7353 3.01079 26.3 3.08061 26.8491 3.22199C27.0608 3.29147 27.2555 3.40567 27.4204 3.55704C27.5853 3.70841 27.7165 3.8935 27.8054 4.10006C28.0229 4.58877 28.1084 5.12712 28.0532 5.6602Z" fill="#5929A6"/>
<path d="M21.9319 7.12644C22.4197 6.98532 22.9037 6.83244 23.3915 6.69917C23.4971 6.67754 23.5944 6.62583 23.6719 6.55014C23.7494 6.47444 23.8039 6.37791 23.8291 6.27189C23.9836 5.7552 24.1724 5.24968 24.3943 4.75879C24.5221 5.2135 24.6731 5.66038 24.7622 6.12293C24.7783 6.29116 24.8477 6.4496 24.9601 6.57463C25.0724 6.69967 25.2216 6.7846 25.3855 6.81676C25.8192 6.9422 26.2335 7.12644 26.6826 7.295C26.5876 7.37841 26.4704 7.43159 26.3457 7.44788C25.9586 7.56548 25.5714 7.68699 25.1842 7.79675C25.086 7.81479 24.9952 7.86152 24.923 7.93117C24.8508 8.00083 24.8002 8.09037 24.7777 8.18875C24.6228 8.70618 24.4331 9.21186 24.2511 9.73321C24.1504 9.69401 24.1466 9.61169 24.1272 9.54505C23.9956 9.05898 23.8523 8.5729 23.74 8.08291C23.7256 8.01416 23.6932 7.95059 23.6462 7.89887C23.5992 7.84715 23.5393 7.80917 23.4729 7.78891C22.9579 7.60467 22.4507 7.39692 21.9241 7.21268L21.9319 7.12644Z" fill="#5929A6"/>
<path d="M21.9242 4.07324C22.1276 4.07745 22.3227 4.15592 22.4735 4.29422C22.6244 4.43251 22.7208 4.62132 22.745 4.82587C22.7257 4.99179 22.646 5.14444 22.5214 5.25393C22.3968 5.36342 22.2362 5.42186 22.0713 5.41779C21.8796 5.42462 21.6926 5.35696 21.5487 5.22868C21.4047 5.1004 21.3146 4.92122 21.2969 4.72787C21.3024 4.55934 21.3697 4.3989 21.4856 4.27786C21.6016 4.15682 21.7579 4.08387 21.9242 4.07324Z" fill="#5929A6"/>
<path d="M5.69357 19.3609C5.69697 19.5383 5.63566 19.7107 5.52138 19.8452C5.40709 19.9797 5.24784 20.0669 5.07408 20.09C4.90848 20.0703 4.75642 19.9878 4.64862 19.859C4.54082 19.7302 4.48531 19.5648 4.49331 19.3962C4.48727 19.2189 4.54527 19.0454 4.65645 18.9083C4.76764 18.7712 4.92438 18.6799 5.09731 18.6514C5.26703 18.6711 5.42302 18.7553 5.53372 18.887C5.64442 19.0187 5.70156 19.1881 5.69357 19.3609Z" fill="#5929A6"/>
<path d="M5.03534 32.4495C5.02844 32.3464 5.04403 32.2429 5.08102 32.1465C5.118 32.05 5.17546 31.963 5.24935 31.8916C5.32323 31.8202 5.41172 31.766 5.50856 31.7331C5.60539 31.7001 5.7082 31.6891 5.80971 31.7008L11.0289 32.0928L15.5744 32.4378L21.3279 32.8768C21.4255 32.8729 21.5228 32.8903 21.6132 32.9278C21.7035 32.9653 21.7849 33.022 21.8517 33.0942C21.9186 33.1663 21.9693 33.2521 22.0005 33.3458C22.0317 33.4395 22.0426 33.5389 22.0326 33.6373C21.9822 34.1626 21.6957 34.3703 21.1653 34.3233C20.2554 34.241 19.3417 34.1939 18.4279 34.1234L14.2541 33.798L11.5438 33.6059C9.59504 33.4596 7.64881 33.3106 5.70517 33.1591C5.61501 33.1575 5.52604 33.1379 5.44343 33.1013C5.36082 33.0648 5.2862 33.0119 5.22389 32.9459C5.16159 32.8799 5.11284 32.8021 5.08048 32.7169C5.04811 32.6317 5.03277 32.5408 5.03534 32.4495Z" fill="#5929A6"/>
<path d="M23.1399 33.8219C23.1263 33.6464 23.1791 33.4722 23.2877 33.3346C23.3962 33.197 23.5524 33.1064 23.7245 33.0811C23.8955 33.097 24.0533 33.1803 24.1642 33.3131C24.275 33.4458 24.3298 33.6173 24.3169 33.7906C24.3226 33.9686 24.2634 34.1424 24.1506 34.2791C24.0377 34.4157 23.8792 34.5055 23.7052 34.5314C23.6218 34.5232 23.5408 34.4981 23.467 34.4578C23.3933 34.4175 23.3282 34.3627 23.2756 34.2967C23.2229 34.2306 23.1838 34.1546 23.1605 34.0731C23.1373 33.9916 23.1302 33.9062 23.1399 33.8219Z" fill="#5929A6"/>
<path d="M25.3352 20.866C25.1979 20.8025 25.0477 20.7729 24.8969 20.7797C24.7461 20.7865 24.599 20.8295 24.4679 20.9052C23.7724 21.2408 23.0187 21.4352 22.2493 21.4775C22.262 21.4206 22.2776 21.3643 22.2958 21.3089C22.8418 19.8602 23.1391 18.3277 23.1747 16.7775C23.2504 15.1433 23.1031 13.5063 22.7372 11.9128C22.4191 10.3079 21.5926 8.85181 20.3831 7.76551C19.576 7.04548 18.55 6.62646 17.4754 6.57798C16.4007 6.52949 15.3419 6.85446 14.4748 7.49895C14.1999 7.71455 14.0179 7.84391 13.6462 7.64399C13.2009 7.40487 12.717 7.60087 12.2833 7.80863C11.1281 8.40059 10.2015 9.36639 9.6505 10.5526C8.49464 12.778 7.96936 15.2838 8.13275 17.7927C8.19427 19.0523 8.42616 20.2974 8.82193 21.4932C9.8286 24.4292 12.3066 26.5421 15.3769 26.5656C16.4912 26.5991 17.5956 26.3455 18.5866 25.8286C19.5109 25.3222 20.3133 24.6155 20.9368 23.7589C20.974 23.6961 21.0268 23.6442 21.09 23.6084C21.1532 23.5726 21.2245 23.5542 21.2969 23.5551C22.3743 23.5188 23.4386 23.3056 24.4485 22.924C24.7351 22.8509 24.9983 22.7044 25.2126 22.4984C25.4269 22.2924 25.5851 22.0339 25.672 21.748C25.7374 21.5852 25.7389 21.4033 25.6763 21.2394C25.6137 21.0755 25.4917 20.9419 25.3352 20.866ZM15.9809 24.4567C13.6578 24.6409 11.8265 23.12 11.0405 20.8268C10.6862 19.7523 10.4893 18.631 10.4558 17.4987C10.3693 15.7531 10.6765 14.0104 11.3541 12.4028C11.6016 11.8151 11.9344 11.2682 12.3414 10.78C11.7761 13.3985 11.8419 15.9072 13.0035 18.2945C13.5496 19.4526 14.3249 20.4848 15.2813 21.327C16.2377 22.1692 17.3548 22.8035 18.5634 23.1905C17.8855 23.9196 16.9662 24.3704 15.9809 24.4567ZM20.0308 20.9679C19.8566 21.3913 19.8566 21.403 19.4462 21.258C16.4455 20.2035 14.7148 18.075 14.2192 14.9155C14.0019 13.6897 14.0615 12.4299 14.3935 11.2307C14.571 10.612 14.8832 10.0414 15.3072 9.56085C16.3952 8.3339 18.0523 8.38486 19.179 9.64708C19.9414 10.5784 20.4321 11.7064 20.5961 12.9046C20.7807 13.9726 20.8765 15.0543 20.8826 16.1385C20.9131 17.7892 20.6237 19.4299 20.0308 20.9679Z" fill="#5929A6"/>
</svg>
