<svg width="155" height="50" viewBox="0 0 155 50" fill="none" xmlns="http://www.w3.org/2000/svg">
<path d="M37.7509 32.379C37.8029 30.5486 37.982 28.7241 38.2867 26.9191C38.3777 26.3255 38.4484 25.7319 38.5445 25.1435C38.6057 24.824 38.5859 24.494 38.4869 24.1843C38.3879 23.8747 38.2129 23.5955 37.9784 23.373C37.7211 23.1328 37.5609 22.8047 37.5286 22.4519C37.529 22.2542 37.5691 22.0586 37.6465 21.8771C37.7239 21.6956 37.8369 21.5319 37.9787 21.3959C38.1206 21.26 38.2882 21.1547 38.4715 21.0864C38.6547 21.0181 38.8498 20.9883 39.0448 20.9987C39.737 21.0543 40.3826 21.3735 40.8516 21.892C41.3205 22.4104 41.5779 23.0896 41.5719 23.7926C41.5172 25.3485 41.3483 26.8981 41.0665 28.4286C40.8419 29.642 40.7251 30.8733 40.7178 32.1078C40.7178 32.2306 40.7178 32.3585 40.7178 32.4813C40.8593 33.6787 41.6023 34.2211 42.7395 33.9448C43.3193 33.7931 43.8628 33.524 44.3371 33.1538C44.8114 32.7835 45.2067 32.3198 45.499 31.7905C46.2574 30.498 46.7219 29.0506 46.8586 27.5536C47.0608 26.0185 47.2175 24.5141 47.3641 22.9892C47.372 22.7064 47.4626 22.4324 47.6246 22.2019C47.7866 21.9714 48.0125 21.7948 48.2738 21.6946C48.5161 21.5727 48.7876 21.5232 49.0567 21.5518C49.3257 21.5804 49.5812 21.6859 49.7932 21.856C50.0052 22.0261 50.165 22.2538 50.254 22.5124C50.3429 22.7711 50.3573 23.0501 50.2955 23.3167C50.0478 25.7268 49.7143 28.1165 49.7092 30.5369C49.6982 31.3281 49.7779 32.118 49.9468 32.8907C49.9941 33.1235 50.0759 33.3478 50.1894 33.5559C50.2247 33.6718 50.2895 33.7763 50.3773 33.8588C50.4651 33.9412 50.5728 33.9989 50.6896 34.0258C50.8064 34.0528 50.9282 34.0482 51.0427 34.0124C51.1571 33.9766 51.2603 33.9109 51.3417 33.822C51.784 33.4597 52.1471 33.0084 52.4081 32.4967C53.5126 30.491 54.4346 28.3878 55.1627 26.2129C55.5317 25.1895 55.8652 24.1661 56.1382 23.1427C56.1678 23.0638 56.1755 22.9782 56.1604 22.8951C56.1452 22.8121 56.1078 22.7349 56.0522 22.6719C55.7924 22.3278 55.6585 21.9031 55.6732 21.4701C55.688 21.0372 55.8505 20.6229 56.1331 20.2976C56.2734 20.1687 56.4382 20.0699 56.6173 20.0073C56.7965 19.9447 56.9863 19.9195 57.1753 19.9334C57.3644 19.9473 57.5486 19.9999 57.717 20.088C57.8854 20.1761 58.0343 20.2979 58.1548 20.446C58.4281 20.826 58.7473 21.1698 59.105 21.4694C59.5154 21.8082 59.998 22.0456 60.5147 22.1628C61.0314 22.2801 61.568 22.2739 62.0819 22.1449L62.5873 22.0272C62.8142 21.9488 63.0578 21.9345 63.2921 21.9858C63.5264 22.0371 63.7424 22.1521 63.917 22.3183C64.0916 22.4846 64.2182 22.6958 64.2831 22.9294C64.3481 23.163 64.3489 23.4101 64.2855 23.6442C64.167 24.2063 63.9838 24.7525 63.7397 25.2714C62.9127 27.0014 62.2559 28.8096 61.7787 30.6699C61.6489 31.2121 61.5995 31.7709 61.6321 32.3278C61.7685 34.0881 63.5476 34.5128 64.6646 33.8271C65.4619 33.2969 66.1222 32.581 66.5903 31.7394C67.3965 30.4101 68.0736 29.0049 68.6119 27.5434C68.7108 27.2113 68.8837 26.9066 69.1174 26.653C69.303 26.477 69.5425 26.3703 69.7962 26.3508C70.0498 26.3313 70.3025 26.4 70.5123 26.5456C70.7606 26.7012 70.9471 26.94 71.0395 27.2205C71.1318 27.501 71.1241 27.8053 71.0177 28.0807C70.6741 29.0529 70.2798 30.0098 69.8452 30.9462C69.2138 32.4207 68.3819 33.7986 67.3737 35.0399C66.6057 35.9491 65.5628 36.5763 64.4068 36.8243C63.2508 37.0722 62.0463 36.927 60.9801 36.4112C60.2666 36.0413 59.6694 35.4768 59.2559 34.7815C58.8424 34.0862 58.6291 33.2877 58.64 32.4762C58.549 30.6955 59.1151 29.0376 59.6862 27.3848C59.9514 26.6074 60.255 25.8439 60.596 25.0974C60.7122 24.8365 60.6768 24.7392 60.3736 24.6983C59.8229 24.6215 59.2864 24.4629 58.7815 24.2275C58.5389 24.115 58.458 24.1764 58.3721 24.422C57.5331 26.7963 56.7497 29.1911 55.7085 31.4784C55.0262 32.9726 54.3136 34.4668 53.1107 35.6283C52.0998 36.6517 50.8666 37.0713 49.4514 36.575C48.3901 36.2014 47.8745 35.3111 47.4904 34.3184C47.4146 34.1239 47.359 33.9192 47.2933 33.7146C47.2933 33.648 47.2933 33.5508 47.1922 33.5303C47.0911 33.5099 47.0507 33.6173 47.0103 33.6839C46.637 34.2535 46.19 34.7698 45.681 35.219C44.9613 35.931 44.0587 36.4241 43.0757 36.6421C42.0928 36.8602 41.0692 36.7944 40.1214 36.4522C39.4255 36.1811 38.8263 35.7042 38.4017 35.0836C37.9772 34.463 37.7469 33.7275 37.7408 32.9726C37.7459 32.7884 37.7509 32.5888 37.7509 32.379Z" fill="#D32D9D"/>
<path d="M85.6445 37.1634C83.7666 37.25 81.9179 36.6689 80.4185 35.5209C78.3513 33.8834 77.578 31.7138 77.8914 29.1143C78.0007 28.0848 78.2613 27.0775 78.6647 26.126C78.78 25.7358 79.0436 25.4079 79.3976 25.2146C79.7516 25.0212 80.167 24.9782 80.5524 25.0949C80.9378 25.2116 81.2616 25.4785 81.4526 25.8369C81.6436 26.1954 81.6861 26.6159 81.5708 27.0061C81.4799 27.6099 81.2575 28.183 81.116 28.7766C80.8974 29.4799 80.8669 30.2293 81.0277 30.9484C81.1884 31.6675 81.5345 32.3307 82.0308 32.8702C82.7539 33.6704 83.7405 34.1762 84.8055 34.2928C86.4381 34.5026 87.9695 34.2928 89.2937 33.1619C90.0551 32.4974 90.5628 31.5841 90.729 30.5804C90.8951 29.5767 90.7092 28.5457 90.2034 27.6662C89.4845 26.6036 88.5614 25.6986 87.4893 25.0053C86.0506 24.017 84.6717 22.9422 83.36 21.7867C81.7376 20.2516 80.5802 18.435 80.5701 16.0556C80.5481 15.1779 80.7494 14.3093 81.1548 13.5333C81.5602 12.7572 82.156 12.0998 82.8849 11.6242C84.1443 10.783 85.6436 10.3885 87.1481 10.5024C88.6526 10.6163 90.0774 11.2322 91.1991 12.2536C91.6044 12.6369 91.9289 13.0992 92.153 13.6128C92.3771 14.1264 92.4962 14.6805 92.5031 15.242C92.5669 15.9377 92.4682 16.6388 92.215 17.2888C92.1238 17.5186 91.9754 17.7207 91.7844 17.8754C91.5933 18.0302 91.366 18.1323 91.1245 18.1719C90.883 18.2116 90.6355 18.1874 90.4059 18.1017C90.1763 18.016 89.9725 17.8717 89.8143 17.6828C89.6349 17.4889 89.537 17.232 89.5413 16.9664C89.5413 16.6338 89.5413 16.291 89.5717 15.943C89.6087 15.6001 89.5595 15.2534 89.4287 14.9349C89.298 14.6164 89.0898 14.3366 88.8236 14.1213C88.3428 13.6829 87.7447 13.398 87.1045 13.3024C86.4643 13.2068 85.8105 13.3048 85.225 13.584C84.6315 13.8347 84.1547 14.3051 83.8917 14.8993C83.6288 15.4935 83.5995 16.1669 83.8099 16.7822C84.1623 17.9604 84.869 18.9979 85.8315 19.7501C87.3478 20.9833 88.9298 22.1398 90.4663 23.332C91.5136 24.1083 92.3883 25.0985 93.0338 26.2385C93.5692 27.1787 93.8752 28.2348 93.9262 29.3189C93.9771 30.4029 93.7717 31.4836 93.3269 32.4711C92.1392 35.2087 89.9356 36.662 87.0446 37.0765C86.5813 37.1465 86.1128 37.1756 85.6445 37.1634Z" fill="#D32D9D"/>
<path d="M39.2926 41.0319C39.433 40.9915 39.5819 40.9927 39.7216 41.0353C39.8614 41.0779 39.9861 41.1602 40.0811 41.2724C40.5208 41.7279 40.9959 42.1475 41.4558 42.5824C41.4558 42.5824 41.4962 42.5824 41.5822 42.6131C41.5822 42.173 41.5822 41.7432 41.5822 41.3134C41.5822 41.1343 41.5822 41.0012 41.8298 41.0012C42.0775 41.0012 42.0825 41.1445 42.0825 41.3236C42.0825 41.7432 42.0825 42.1577 42.0825 42.6899L43.4775 41.4413C43.7555 41.1906 43.9829 40.8631 44.4883 41.0524C44.1965 41.3695 43.8877 41.6701 43.5634 41.953C43.4421 42.0758 43.3107 42.1884 43.1843 42.3061C42.7648 42.695 42.7648 42.695 43.149 43.1402L44.6248 44.8339C44.2407 44.9158 43.9576 44.9311 43.71 44.6036C43.3461 44.1329 42.9316 43.703 42.5374 43.2579C42.4717 43.1811 42.4363 43.0174 42.2948 43.0788C42.2267 43.1078 42.169 43.1571 42.1292 43.2202C42.0895 43.2833 42.0697 43.3571 42.0724 43.4318C42.0724 43.8105 42.0724 44.184 42.0724 44.5576C42.0724 44.752 42.0724 44.8902 41.8045 44.8851C41.5367 44.88 41.5771 44.7265 41.5771 44.5627C41.5771 44.1994 41.5771 43.8412 41.5771 43.4779C41.5898 43.3977 41.5752 43.3156 41.5357 43.2449C41.4962 43.1743 41.4342 43.1193 41.3598 43.089C41.2081 43.0327 41.1525 43.1965 41.0818 43.2834C40.7027 43.7235 40.3338 44.1738 39.9547 44.619C39.7172 44.9107 39.7121 44.9056 39.0803 44.8544L39.9345 43.831C40.1973 43.5137 40.4399 43.2016 40.733 42.8946C40.8543 42.7615 40.8645 42.6899 40.733 42.5415C40.2377 42.0502 39.7778 41.5436 39.2926 41.0319Z" fill="#D32D9D"/>
<path d="M123.288 44.0254L124.547 41.6204C124.658 41.4157 124.734 41.0473 124.921 41.0626C125.108 41.078 125.148 41.4567 125.224 41.6767C125.583 42.7001 125.922 43.7798 126.265 44.8339C125.881 44.9618 125.694 44.8339 125.583 44.4604C125.371 43.6979 125.078 42.9253 124.83 42.1526C124.631 42.3786 124.474 42.6385 124.365 42.9201C124.052 43.4881 123.769 44.0715 123.465 44.6395C123.42 44.7265 123.389 44.8544 123.278 44.8544C123.167 44.8544 123.152 44.7162 123.106 44.6292C122.672 43.8105 122.242 42.9867 121.772 42.0707C121.479 42.9611 121.211 43.7747 120.938 44.5883C120.898 44.7111 120.888 44.8493 120.696 44.8646C120.347 44.8953 120.301 44.8646 120.413 44.5218C120.761 43.4625 121.115 42.3982 121.474 41.339C121.509 41.2264 121.504 41.0422 121.641 41.0268C121.777 41.0115 121.828 41.2059 121.888 41.3185C122.348 42.2038 122.798 43.0788 123.288 44.0254Z" fill="#D32D9D"/>
<path d="M48.4001 44.8186C48.4001 43.6212 48.4001 42.4289 48.4001 41.2366C48.4001 41.0473 48.4962 41.0115 48.6529 41.0115C48.8095 41.0115 48.9005 41.1189 48.9005 41.2929C48.9005 41.9786 48.9005 42.6694 48.9005 43.3397C48.8792 43.4791 48.8931 43.6217 48.9409 43.7542L51.6146 41.0371C51.8269 41.124 51.7865 41.2417 51.7865 41.3287C51.7865 42.3982 51.7865 43.4728 51.7865 44.5474C51.7865 44.7367 51.7865 44.88 51.5186 44.88C51.2507 44.88 51.2861 44.7213 51.2861 44.5576V42.127L48.5316 44.9158L48.4001 44.8186Z" fill="#D32D9D"/>
<path d="M94.6663 44.839C94.2923 44.9414 94.0801 44.88 93.9234 44.4962C93.6201 43.7389 93.2512 43.0071 92.8772 42.1935C92.6438 42.6011 92.4361 43.0233 92.2555 43.4574C92.0634 43.8463 91.8764 44.2403 91.7197 44.6497C91.6085 44.9465 91.3811 44.8851 91.1688 44.8749C90.9566 44.8646 91.0779 44.7623 91.1132 44.6906C91.649 43.524 92.1864 42.3607 92.7255 41.2008C92.7912 41.0575 92.8822 40.9398 92.9883 41.1701L94.6663 44.839Z" fill="#D32D9D"/>
<path d="M66.2567 42.9406C66.2567 43.4984 66.2567 44.0612 66.2567 44.619C66.2567 44.8083 66.2112 44.8902 66.0091 44.8851C65.8069 44.88 65.7563 44.8032 65.7563 44.619C65.7563 43.5137 65.7563 42.4033 65.7563 41.298C65.7563 41.0933 65.817 41.0012 66.0293 41.0012C66.2415 41.0012 66.2567 41.1343 66.2567 41.298C66.2517 41.8456 66.2567 42.3931 66.2567 42.9406Z" fill="#D32D9D"/>
<path d="M133.887 42.9252C133.887 43.4728 133.887 44.0203 133.887 44.5729C133.887 44.7418 133.887 44.8851 133.644 44.8902C133.402 44.8953 133.382 44.7879 133.382 44.5934C133.382 43.4984 133.382 42.4033 133.382 41.3083C133.382 41.124 133.382 40.9961 133.629 41.0012C133.877 41.0063 133.882 41.1445 133.882 41.3236C133.882 41.8558 133.887 42.3931 133.887 42.9252Z" fill="#D32D9D"/>
<path d="M153.886 26.4893C153.24 26.1874 152.633 26.4534 152.269 27.221C152.042 27.702 151.845 28.1984 151.622 28.6845C150.774 30.6295 149.648 32.438 148.281 34.0523C148.148 34.2499 147.965 34.4073 147.751 34.5077C147.751 34.39 147.751 34.303 147.751 34.216C147.852 32.8242 147.948 31.4323 148.049 30.0405C148.14 28.8397 148.234 27.6457 148.332 26.4586C148.413 25.3891 148.499 24.3196 148.569 23.2553C148.613 22.9368 148.55 22.6128 148.39 22.3347C148.231 22.0566 147.985 21.8403 147.69 21.7202C147.379 21.591 147.035 21.5665 146.709 21.6504C146.384 21.7342 146.093 21.9219 145.881 22.1858C145.656 22.516 145.545 22.9112 145.562 23.3116C145.451 24.6011 145.4 25.9008 145.234 27.1801C145.06 28.8373 144.528 30.4356 143.677 31.8622C143.376 32.4032 142.966 32.8744 142.475 33.2455C141.983 33.6165 141.42 33.8791 140.821 34.0165C139.942 34.1956 139.234 33.8732 138.987 33.1619C138.825 32.6677 138.763 32.1457 138.805 31.6268C138.992 29.1962 139.543 26.8065 139.73 24.3708C139.856 22.7333 139.012 21.4797 137.708 21.1112C137.306 20.9768 136.869 20.995 136.48 21.1624C136.269 21.2472 136.083 21.3862 135.941 21.5657C135.799 21.7452 135.705 21.959 135.67 22.1862C135.634 22.4133 135.657 22.6459 135.737 22.8612C135.817 23.0765 135.951 23.267 136.126 23.4139C136.302 23.5537 136.446 23.7312 136.546 23.9338C136.647 24.1364 136.702 24.3591 136.707 24.5857C136.702 25.5325 136.569 26.4742 136.313 27.3848C135.719 29.2176 134.844 30.9445 133.72 32.5018C133.3 33.1406 132.717 33.6518 132.032 33.9806C131.761 34.1116 131.464 34.1771 131.164 34.1721C130.864 34.1672 130.569 34.0918 130.303 33.9519C130.036 33.8121 129.805 33.6116 129.628 33.3662C129.451 33.1208 129.333 32.8372 129.283 32.5376C129.212 32.0436 129.231 31.5408 129.338 31.0537C129.752 29.2138 130.369 27.427 131.178 25.7268C131.516 25.048 131.771 24.3296 131.936 23.5879C131.984 23.3642 131.975 23.1318 131.909 22.9128C131.843 22.6938 131.723 22.4957 131.559 22.3375C131.396 22.1792 131.195 22.0662 130.976 22.0091C130.757 21.9521 130.527 21.953 130.309 22.0118L129.844 22.1244C129.155 22.3185 128.424 22.2946 127.749 22.0558C127.074 21.8171 126.488 21.375 126.068 20.7889C125.932 20.6076 125.784 20.4366 125.623 20.2772C125.487 20.1502 125.326 20.0531 125.151 19.992C124.976 19.9308 124.791 19.9069 124.606 19.9218C124.422 19.9367 124.242 19.9901 124.079 20.0785C123.915 20.1669 123.772 20.2886 123.657 20.4358C123.423 20.7598 123.3 21.1517 123.304 21.553C123.309 21.9543 123.441 22.3432 123.683 22.6617C123.741 22.731 123.781 22.815 123.797 22.905C123.813 22.995 123.805 23.0877 123.774 23.1734C123.383 24.5773 122.919 25.9592 122.384 27.3131C122.116 28.045 121.719 28.7213 121.211 29.3088C120.662 29.9356 119.967 30.414 119.189 30.7006C119.167 30.6508 119.155 30.5967 119.155 30.542C119.155 30.4873 119.167 30.4332 119.189 30.3833C119.55 28.7837 119.511 27.1185 119.078 25.5375C118.714 24.3145 118.214 23.1325 117.178 22.3547C116.302 21.6577 115.247 21.2309 114.138 21.1257C113.029 21.0204 111.914 21.241 110.926 21.7611C108.869 22.7385 107.605 24.4987 106.882 26.6428C106.66 27.2978 106.534 27.9937 106.306 28.6487C105.963 29.5437 105.563 30.4154 105.108 31.2584C104.651 32.2357 103.968 33.087 103.117 33.7401C102.838 33.9556 102.508 34.0938 102.16 34.1411C101.813 34.1884 101.459 34.1432 101.133 34.01C100.808 33.8768 100.522 33.6602 100.305 33.3814C100.087 33.1026 99.9451 32.7712 99.8924 32.4199C99.7392 31.423 99.707 30.4108 99.7964 29.406C99.948 26.8475 100.458 24.2889 100.807 21.7304C100.858 21.4029 101.004 21.3927 101.252 21.4285C102.091 21.5564 102.935 21.6741 103.779 21.7918C103.931 21.8328 104.09 21.842 104.246 21.819C104.401 21.796 104.551 21.7412 104.685 21.658C104.819 21.5747 104.936 21.4647 105.027 21.3347C105.117 21.2046 105.181 21.0573 105.214 20.9014C105.376 20.0571 105.068 19.5045 104.264 19.3203C103.597 19.1619 102.922 19.0389 102.243 18.9518C101.171 18.8086 101.191 18.829 101.333 17.7493C101.518 16.5291 101.633 15.2989 101.677 14.065C101.696 13.869 101.674 13.6711 101.612 13.4842C101.551 13.2974 101.451 13.1259 101.319 12.9809C101.187 12.8359 101.027 12.7208 100.848 12.6431C100.669 12.5654 100.476 12.5268 100.282 12.5299C100.078 12.5092 99.8724 12.5319 99.678 12.5965C99.4835 12.6611 99.3046 12.7662 99.1528 12.905C99.0009 13.0438 98.8794 13.2133 98.7961 13.4025C98.7129 13.5917 98.6697 13.7965 98.6693 14.0036C98.6187 15.4364 98.457 16.859 98.2852 18.2815C98.2548 18.5271 98.1638 18.6039 97.9364 18.5988C97.5548 18.5741 97.1716 18.5929 96.7942 18.655C96.4858 18.7024 96.2051 18.8622 96.005 19.1044C95.8048 19.3466 95.699 19.6545 95.7075 19.9701C95.7321 20.3108 95.8857 20.6287 96.1361 20.8575C96.3866 21.0863 96.7147 21.2084 97.0519 21.1982C97.2202 21.2096 97.3891 21.2096 97.5573 21.1982C97.8454 21.1675 97.8859 21.3057 97.8505 21.5513C97.4866 23.9154 97.0772 26.2692 96.8396 28.6538C96.6668 30.0655 96.7043 31.4954 96.9508 32.8958C97.1412 34.1204 97.78 35.2274 98.74 35.9968C99.7803 36.7348 101.055 37.0545 102.315 36.8938C103.575 36.733 104.731 36.1031 105.558 35.1269C105.995 34.5801 106.396 34.0039 106.756 33.4024L106.938 33.776C107.306 34.6393 107.874 35.3995 108.596 35.9916C110.304 37.3221 113.347 37.4449 115.368 36.2731C116.396 35.6683 117.256 34.8113 117.87 33.7811C117.971 33.6173 118.047 33.4536 118.295 33.4126C121.449 32.9419 123.561 31.1509 124.683 28.1523C125.148 26.9037 125.593 25.6501 126.033 24.3913C126.114 24.1661 126.2 24.1405 126.402 24.2275C126.891 24.4332 127.399 24.5892 127.918 24.6932C128.358 24.7853 128.358 24.7802 128.181 25.2049C127.367 27.1749 126.579 29.1501 126.321 31.2891C126.088 33.2387 126.563 34.9273 128.226 36.0889C130.213 37.4705 133.28 37.0048 134.913 35.1371C135.267 34.7328 135.58 34.2928 135.924 33.8527C135.974 34.0011 136.01 34.0932 136.04 34.1904C136.284 34.949 136.762 35.6077 137.405 36.0686C138.048 36.5296 138.821 36.7682 139.608 36.749C140.531 36.7474 141.442 36.5393 142.275 36.1394C143.109 35.7395 143.845 35.1578 144.43 34.4361C144.501 34.3593 144.536 34.2211 144.713 34.2774C144.652 35.0655 144.597 35.8586 144.536 36.6517C144.536 36.836 144.39 36.9178 144.243 36.9997C143.271 37.5144 142.327 38.0798 141.413 38.6934C140.461 39.2794 139.622 40.0353 138.936 40.9245C138.648 41.298 138.447 41.7331 138.349 42.1969C138.251 42.6607 138.259 43.1409 138.372 43.6011C138.485 44.0613 138.701 44.4894 139.001 44.8528C139.302 45.2163 139.681 45.5056 140.109 45.6987C140.701 45.9828 141.349 46.1302 142.004 46.1302C142.66 46.1302 143.307 45.9828 143.899 45.6987C145.198 45.1307 145.921 43.9998 146.462 42.7717C147.005 41.4147 147.334 39.9798 147.437 38.5195C147.443 38.4282 147.47 38.3396 147.516 38.2606C147.562 38.1816 147.625 38.1143 147.7 38.064C148.868 37.2247 149.913 36.2221 150.803 35.0859C152.347 32.9931 153.591 30.6898 154.498 28.2444C154.578 28.0898 154.626 27.92 154.639 27.7457C154.651 27.5715 154.628 27.3965 154.571 27.2317C154.513 27.0669 154.423 26.9159 154.305 26.7882C154.187 26.6604 154.045 26.5587 153.886 26.4893ZM114.636 33.2233C114.252 33.6324 113.774 33.9397 113.245 34.1181C112.717 34.2966 112.153 34.3408 111.603 34.2467C111.141 34.1706 110.709 33.9683 110.353 33.6617C109.997 33.3551 109.73 32.9558 109.581 32.5069C108.677 30.2605 109.475 26.5507 111.209 24.8774L111.401 24.7188C110.937 26.2506 110.994 27.8955 111.563 29.3906C112.138 30.8393 113.204 32.0331 114.57 32.7577C114.823 32.9163 114.873 32.993 114.636 33.2233ZM116.506 27.8095C116.499 28.6708 116.399 29.5288 116.207 30.368C116.101 30.7927 116.091 30.8029 115.702 30.5727C115.116 30.2225 114.619 29.7385 114.25 29.1592C113.881 28.5799 113.652 27.9215 113.579 27.2364C113.461 26.5073 113.539 25.7593 113.807 25.0718C113.855 24.846 113.971 24.6405 114.138 24.4832C114.305 24.3258 114.516 24.2241 114.742 24.1917C114.959 24.1863 115.174 24.2436 115.361 24.3568C115.548 24.47 115.7 24.6345 115.798 24.8313C116.148 25.4133 116.358 26.0708 116.41 26.7502C116.469 27.1002 116.502 27.4544 116.506 27.8095ZM143.086 42.9867C142.926 43.1532 142.725 43.273 142.503 43.3334C142.281 43.3937 142.048 43.3924 141.827 43.3295C141.717 43.3119 141.613 43.2689 141.522 43.2039C141.432 43.1388 141.357 43.0535 141.304 42.9545C141.251 42.8554 141.222 42.7454 141.218 42.633C141.214 42.5205 141.236 42.4087 141.281 42.3061C141.41 41.9533 141.624 41.6385 141.903 41.3901C142.628 40.726 143.439 40.1648 144.314 39.722C144.096 40.9603 143.96 42.1014 143.086 42.9867Z" fill="#D32D9D"/>
<path d="M108.621 41.9121C108.423 41.5753 108.13 41.3056 107.78 41.1371C107.43 40.9687 107.039 40.9089 106.655 40.9654C106.376 41.0129 106.113 41.1268 105.886 41.2976C105.66 41.4684 105.476 41.6913 105.351 41.9479C105.285 40.8324 105.857 40.1467 106.908 40.0853C107.424 40.0716 107.939 40.0272 108.449 39.9522C108.657 39.9164 108.657 39.7834 108.652 39.6248C108.646 39.4661 108.485 39.4866 108.384 39.4917C107.878 39.4917 107.327 39.5326 106.802 39.5889C106.441 39.584 106.088 39.6854 105.783 39.8808C105.479 40.0762 105.238 40.3571 105.088 40.6891C104.793 41.4726 104.732 42.3267 104.911 43.1453C104.953 43.5523 105.116 43.937 105.378 44.2478C105.641 44.5587 105.991 44.781 106.382 44.8851C106.751 44.9984 107.145 44.9981 107.514 44.8842C107.883 44.7703 108.211 44.548 108.454 44.2455C108.72 43.9231 108.879 43.5245 108.909 43.1059C108.939 42.6873 108.838 42.2698 108.621 41.9121ZM106.933 44.5064C106.537 44.4971 106.16 44.3312 105.884 44.0443C105.607 43.7574 105.452 43.3723 105.452 42.9713C105.452 42.5737 105.608 42.1923 105.886 41.9111C106.164 41.63 106.54 41.472 106.933 41.472C107.326 41.472 107.703 41.63 107.98 41.9111C108.258 42.1923 108.414 42.5737 108.414 42.9713C108.414 43.3723 108.259 43.7574 107.982 44.0443C107.706 44.3312 107.329 44.4971 106.933 44.5064Z" fill="#D32D9D"/>
<path d="M87.2771 41.2315C87.2771 41.0473 87.171 41.0115 87.0143 41.0064C86.8576 41.0013 86.7717 41.0729 86.7768 41.252C86.7818 41.4311 86.8172 41.4925 86.7363 41.6051C85.6345 40.7147 84.5832 40.7096 83.7493 41.6051C83.4127 41.9676 83.2228 42.4448 83.2172 42.9423C83.2116 43.4398 83.3906 43.9213 83.719 44.2915C84.4973 45.1717 85.6345 45.1921 86.7818 44.2915C86.7818 44.4604 86.7818 44.573 86.7818 44.6804C86.7818 44.7879 86.8627 44.8902 87.0093 44.8902C87.1558 44.8902 87.2822 44.8902 87.2822 44.6804C87.2755 43.5308 87.2738 42.3812 87.2771 41.2315ZM85.215 44.5064C85.012 44.5065 84.8111 44.4654 84.6241 44.3853C84.4371 44.3053 84.2679 44.1881 84.1265 44.0407C83.985 43.8932 83.8743 43.7185 83.8009 43.5269C83.7274 43.3353 83.6927 43.1307 83.6988 42.9253C83.7037 42.7217 83.7483 42.521 83.8298 42.3349C83.9114 42.1487 84.0284 41.9806 84.1741 41.8402C84.3198 41.6998 84.4915 41.5898 84.6792 41.5165C84.8669 41.4433 85.067 41.4081 85.2681 41.4132C85.4692 41.4182 85.6674 41.4633 85.8513 41.5459C86.0352 41.6285 86.2012 41.7469 86.3399 41.8944C86.4786 42.042 86.5872 42.2157 86.6595 42.4058C86.7319 42.5958 86.7666 42.7984 86.7616 43.002C86.7577 43.2036 86.7145 43.4025 86.6347 43.5872C86.5548 43.7719 86.4398 43.9389 86.2962 44.0786C86.1525 44.2183 85.9831 44.328 85.7976 44.4014C85.6121 44.4748 85.4142 44.5105 85.215 44.5064Z" fill="#D32D9D"/>
<path d="M71.1998 42.9867C71.6446 42.9867 72.0894 42.9867 72.5291 42.9867C72.9688 42.9867 73.4439 42.9867 73.8988 42.9867C74.197 42.9867 74.293 42.9048 74.2424 42.5978C74.181 42.2051 74.0031 41.8406 73.7323 41.5527C73.4615 41.2649 73.1106 41.0672 72.7262 40.9859C72.3353 40.8847 71.9228 40.9114 71.5478 41.0622C71.1728 41.2129 70.8546 41.48 70.6388 41.8251C70.4931 42.0499 70.3925 42.3015 70.3428 42.5656C70.2931 42.8297 70.2954 43.1012 70.3493 43.3644C70.4033 43.6277 70.508 43.8776 70.6574 44.0999C70.8068 44.3222 70.998 44.5125 71.22 44.6599C71.662 44.9265 72.1878 45.0125 72.6902 44.9003C73.1926 44.7881 73.6338 44.4862 73.924 44.0561C73.9746 43.9691 74.0959 43.8719 73.9897 43.7645C73.9151 43.6816 73.8157 43.6259 73.7067 43.6058C73.5551 43.6058 73.5247 43.79 73.4439 43.8924C73.2769 44.1184 73.0502 44.2921 72.79 44.3935C72.5299 44.4949 72.2467 44.5198 71.9731 44.4655C71.7114 44.4223 71.468 44.3023 71.2731 44.1204C71.0781 43.9385 70.9402 43.7026 70.8763 43.4421C70.7702 43.0583 70.8208 42.9918 71.1998 42.9867ZM70.942 42.3317C71.04 42.0624 71.2169 41.8298 71.449 41.6652C71.6812 41.5006 71.9575 41.4117 72.241 41.4106C72.5368 41.3857 72.8331 41.4533 73.0898 41.6043C73.3465 41.7553 73.5512 41.9824 73.6764 42.2549C73.7674 42.475 73.7421 42.5722 73.4793 42.5619C73.085 42.5619 72.6908 42.5619 72.3016 42.5619H71.1189C70.9572 42.5619 70.8662 42.5466 70.942 42.3317Z" fill="#D32D9D"/>
<path d="M58.4228 43.4267C58.3097 43.1616 58.1073 42.9458 57.8517 42.8178C57.8738 42.78 57.901 42.7456 57.9325 42.7155C58.0832 42.5993 58.1921 42.4362 58.2423 42.2513C58.2925 42.0664 58.2814 41.8699 58.2105 41.692C58.1568 41.5177 58.0541 41.363 57.915 41.2467C57.7759 41.1304 57.6064 41.0575 57.4271 41.0371C57.0223 40.998 56.6155 40.9843 56.2091 40.9961C56.0271 40.9961 55.9766 41.0933 55.9766 41.2571C55.9766 42.3828 55.9766 43.5035 55.9766 44.6292C55.9766 44.7418 55.9766 44.8697 56.1383 44.8646C56.668 44.9066 57.2008 44.8843 57.7253 44.7981C57.8655 44.7631 57.9966 44.6981 58.1099 44.6076C58.2231 44.517 58.3159 44.4029 58.382 44.273C58.4481 44.143 58.4859 44.0003 58.493 43.8543C58.5 43.7084 58.4761 43.5625 58.4228 43.4267ZM57.0026 41.4874C57.2351 41.4874 57.4676 41.4874 57.6343 41.6972C57.6998 41.7873 57.7416 41.8928 57.7558 42.0038C57.7699 42.1148 57.756 42.2276 57.7152 42.3317C57.6776 42.4243 57.614 42.5038 57.5323 42.5602C57.4505 42.6166 57.3542 42.6474 57.2553 42.6489C56.5022 42.7462 56.4719 42.7257 56.4719 41.994C56.4769 41.4822 56.4769 41.4822 57.0026 41.4874ZM57.5939 44.3427C57.267 44.4449 56.9219 44.4729 56.5831 44.4246C56.4668 44.4246 56.4517 44.3324 56.4517 44.2403V43.7952C56.4517 43.0839 56.4517 43.0839 57.2351 43.1402C57.3312 43.1365 57.4269 43.155 57.5148 43.1945C57.6028 43.2339 57.6807 43.2931 57.7426 43.3676C57.8045 43.4422 57.8488 43.53 57.8721 43.6245C57.8954 43.719 57.897 43.8176 57.8769 43.9128C57.8717 44.0035 57.8427 44.091 57.7929 44.1666C57.7432 44.2421 57.6745 44.3029 57.5939 44.3427Z" fill="#D32D9D"/>
<path d="M114.772 40.9347C114.249 40.936 113.748 41.1455 113.376 41.5179C113.005 41.8904 112.792 42.3959 112.786 42.9253C112.774 43.1924 112.816 43.4593 112.91 43.7092C113.004 43.9592 113.148 44.1871 113.332 44.3789C113.516 44.5706 113.737 44.7222 113.981 44.8242C114.226 44.9262 114.488 44.9765 114.752 44.9721C115.015 44.9789 115.276 44.9325 115.521 44.8356C115.765 44.7387 115.988 44.5932 116.177 44.4077C116.365 44.2223 116.515 44.0006 116.617 43.7557C116.72 43.5107 116.773 43.2475 116.774 42.9815C116.774 42.4422 116.563 41.9247 116.189 41.5414C115.814 41.1581 115.305 40.9401 114.772 40.9347ZM114.772 44.5167C114.37 44.5065 113.988 44.335 113.711 44.0399C113.434 43.7448 113.284 43.3503 113.294 42.9432C113.304 42.536 113.473 42.1496 113.765 41.8689C114.056 41.5882 114.446 41.4362 114.848 41.4464C115.25 41.4566 115.632 41.6281 115.909 41.9232C116.186 42.2183 116.336 42.6128 116.326 43.0199C116.316 43.4271 116.147 43.8135 115.855 44.0942C115.564 44.3749 115.174 44.5268 114.772 44.5167Z" fill="#D32D9D"/>
<path d="M100.307 42.6387C99.9761 42.5588 99.6348 42.5329 99.296 42.5619C99.0888 42.5619 99.0079 42.5005 99.018 42.2856C99.018 41.9632 99.018 41.6357 99.018 41.3134C99.018 41.1292 99.018 40.9961 98.7703 41.0012C98.5227 41.0063 98.5176 41.1394 98.5176 41.3236C98.5176 41.8711 98.5176 42.4187 98.5176 42.9662C98.5176 43.5137 98.5176 44.0408 98.5176 44.5729C98.5176 44.7009 98.4721 44.88 98.6895 44.8748C99.2291 44.9183 99.7719 44.8977 100.307 44.8134C100.541 44.752 100.749 44.6147 100.898 44.4225C101.048 44.2303 101.131 43.9938 101.136 43.7491C101.138 43.4974 101.058 43.252 100.908 43.0511C100.758 42.8503 100.547 42.7053 100.307 42.6387ZM100.014 44.4194C99.7466 44.4451 99.4783 44.4553 99.2101 44.4501C99.0433 44.4501 99.0028 44.358 99.0079 44.2147V43.703C99.0079 42.9559 99.0079 42.9611 99.7408 42.9969C100.089 42.9969 100.403 43.089 100.539 43.4728C100.582 43.5691 100.602 43.6743 100.597 43.7798C100.592 43.8853 100.563 43.9882 100.512 44.0802C100.461 44.1723 100.389 44.2509 100.303 44.3098C100.216 44.3687 100.117 44.4063 100.014 44.4194Z" fill="#D32D9D"/>
<path d="M64.2604 42.6131C63.9289 42.538 63.5879 42.5156 63.2495 42.5466C63.0373 42.5466 62.9615 42.4801 62.9716 42.2652C62.9716 41.9581 62.9716 41.646 62.9716 41.3339C62.9716 41.1548 62.9716 40.9808 62.7189 40.9859C62.4661 40.991 62.4712 41.1701 62.4712 41.3441V43.9998C62.4712 44.8646 62.4712 44.8646 63.3759 44.8646C63.6616 44.879 63.948 44.8619 64.2301 44.8135C64.4745 44.7546 64.6922 44.614 64.848 44.4143C65.0038 44.2147 65.0885 43.9677 65.0885 43.7133C65.0885 43.4589 65.0038 43.2119 64.848 43.0123C64.6922 42.8126 64.4745 42.672 64.2301 42.6131H64.2604ZM64.5535 44.0152C64.5264 44.0852 64.4855 44.149 64.4334 44.2026C64.3813 44.2563 64.319 44.2987 64.2503 44.3273C64.1127 44.3764 63.9704 44.4108 63.8257 44.4297C62.9968 44.5116 62.9968 44.5064 62.9968 43.6468C63.0423 43.4523 62.8705 43.1351 63.0777 43.0225C63.4064 42.9159 63.7598 42.9159 64.0885 43.0225C64.1917 43.0466 64.2882 43.0942 64.3705 43.1616C64.4528 43.2291 64.5189 43.3146 64.5637 43.4118C64.6085 43.5089 64.6309 43.6151 64.6291 43.7224C64.6274 43.8296 64.6015 43.935 64.5535 44.0305V44.0152Z" fill="#D32D9D"/>
<path d="M131.875 42.6131C131.56 42.5473 131.236 42.5301 130.915 42.5619C130.688 42.5619 130.607 42.4852 130.617 42.26C130.627 42.0349 130.617 41.6613 130.617 41.3645C130.617 41.1855 130.642 41.0115 130.374 41.0012C130.106 40.991 130.122 41.165 130.122 41.3441V44.5985C130.122 44.7162 130.081 44.88 130.278 44.8749C130.818 44.9183 131.361 44.8977 131.896 44.8135C132.138 44.7582 132.353 44.618 132.503 44.4175C132.653 44.2171 132.728 43.9694 132.714 43.7184C132.72 43.4649 132.64 43.2169 132.488 43.0159C132.335 42.8148 132.119 42.6726 131.875 42.6131ZM131.769 44.3631C131.458 44.4355 131.138 44.4596 130.819 44.4348C130.678 44.4348 130.627 44.3478 130.627 44.2199C130.627 43.9947 130.627 43.7696 130.627 43.5444C130.627 42.9662 130.627 42.9662 131.213 42.9713C131.916 42.9713 132.224 43.176 132.224 43.6775C132.249 43.8308 132.216 43.988 132.132 44.1178C132.048 44.2477 131.918 44.3407 131.769 44.3785V44.3631Z" fill="#D32D9D"/>
<path d="M37.1344 5.64749C37.0272 4.7605 36.6302 3.93524 36.0066 3.3029C35.3829 2.67057 34.5684 2.26746 33.6924 2.15766C32.8332 2.08602 31.974 2.00926 31.1148 1.94274C28.6483 1.76535 26.1819 1.57432 23.7154 1.36963C22.1992 1.25194 20.6829 1.15472 19.1667 1.04214L11.8178 0.469031C10.5543 0.371806 9.29073 0.289934 8.02718 0.167124C7.13339 0.0384885 6.22221 0.194472 5.41987 0.613463C4.61754 1.03245 3.96377 1.69371 3.54916 2.50562C3.03354 3.44771 2.74438 4.49953 2.7051 5.57585C2.62424 6.76813 2.54337 7.96552 2.45745 9.15779C2.31593 10.9897 2.16936 12.8267 2.03289 14.6637C1.94697 15.8304 1.87116 16.9971 1.78524 18.1638C1.64877 20.0008 1.52747 21.8379 1.36574 23.68C1.25454 25.1844 1.15851 26.6837 1.04227 28.1881C0.885588 30.3219 0.713745 32.4558 0.536847 34.5947C0.461034 35.7818 0.380167 36.9844 0.289191 38.1613C0.193161 39.4559 0.087023 40.7198 0.0112099 41.7432C-0.0581184 42.9471 0.195089 44.1475 0.74407 45.2177C1.0297 45.8309 1.46325 46.3614 2.00472 46.7602C2.54619 47.1591 3.17815 47.4135 3.8423 47.4999C5.05531 47.6329 6.27337 47.6944 7.49144 47.7865L15.4063 48.3903L21.34 48.8355C24.0996 49.0453 26.8642 49.2346 29.6238 49.47C30.4675 49.6022 31.3309 49.4607 32.0903 49.0657C32.7715 48.6528 33.3386 48.0723 33.7389 47.3781C34.1392 46.6839 34.3597 45.8985 34.3798 45.0949C34.5062 43.6928 34.582 42.2856 34.6881 40.8836C34.8734 38.4103 35.0621 35.9405 35.2542 33.4741C35.3704 31.9389 35.4614 30.368 35.5777 28.8175C35.7343 26.694 35.9112 24.5704 36.0831 22.4519C36.1993 20.9168 36.2954 19.3817 36.4066 17.8466C36.5683 15.6769 36.7368 13.5056 36.912 11.3325C36.9827 10.4166 37.0737 9.49552 37.1243 8.57957C37.2327 7.60547 37.2361 6.62233 37.1344 5.64749ZM32.909 43.9384C32.8686 44.4501 32.8282 44.9618 32.7473 45.4735C32.7123 45.7979 32.6126 46.1118 32.4542 46.396C32.2958 46.6802 32.082 46.9289 31.8259 47.1269C31.5698 47.325 31.2765 47.4684 30.964 47.5483C30.6515 47.6283 30.3263 47.6431 30.0079 47.592C28.8202 47.4846 27.6274 47.3976 26.4397 47.3055L20.4757 46.85L13.1825 46.3383L7.28927 45.8522C6.30875 45.7806 5.32824 45.7141 4.34772 45.6271C3.73794 45.5864 3.15696 45.3495 2.68959 44.9509C2.22223 44.5523 1.89296 44.0129 1.74986 43.4114C1.52413 42.7263 1.49206 41.991 1.65729 41.2884C1.82251 40.5858 2.17844 39.944 2.68489 39.4354C3.01093 39.1189 3.4057 38.8841 3.83754 38.75C4.26938 38.6158 4.72626 38.5859 5.17156 38.6627C6.38457 38.7702 7.60263 38.8572 8.81564 38.9493L14.7442 39.3996L21.0418 39.8601L27.966 40.3718L30.3365 40.5663C31.3301 40.7032 32.3389 40.4665 33.1719 39.9011C33.0961 41.3032 33.0101 42.6131 32.909 43.9384ZM35.6181 7.331C35.5019 8.54375 35.4463 9.76672 35.3553 10.9846C35.2239 12.7704 35.0773 14.5665 34.9459 16.3421C34.8549 17.5498 34.7791 18.7523 34.6881 19.9599C34.5517 21.7713 34.4101 23.5828 34.2737 25.3942C34.1928 26.5251 34.117 27.656 34.0361 28.7868C33.8845 30.7995 33.7346 32.8105 33.5863 34.8198C33.5824 35.5674 33.4787 36.311 33.278 37.0304C33.1581 37.4903 32.8983 37.9003 32.5355 38.2024C32.1726 38.5046 31.7251 38.6835 31.2563 38.7139C30.702 38.7135 30.1483 38.6776 29.5985 38.6065L22.1385 38.0589L17.1955 37.6854L10.625 37.1737C9.02792 37.0509 7.43079 36.9281 5.83366 36.8155C5.63149 36.8155 5.54051 36.7643 5.56073 36.5085C5.67192 35.2804 5.74774 34.0472 5.83871 32.8191C5.92632 31.6797 6.01561 30.5386 6.10658 29.3958C6.1173 29.234 6.10193 29.0715 6.0611 28.9148C5.96001 28.49 5.71236 28.2547 5.36867 28.2495C5.19513 28.2541 5.028 28.3169 4.89353 28.428C4.75905 28.5391 4.66484 28.6924 4.6257 28.8636C4.52612 29.3464 4.48035 29.839 4.48924 30.3322C4.32245 32.379 4.18093 34.3695 4.05458 36.3805C4.05809 36.4541 4.03911 36.527 4.00022 36.5893C3.96133 36.6516 3.90442 36.7002 3.83725 36.7285C3.28128 36.9946 2.72532 37.2402 2.16936 37.537C1.98741 37.6291 1.9217 37.5728 1.93181 37.3835C1.93181 37.2811 1.93181 37.1839 1.93181 37.0816C2.13061 34.4275 2.33278 31.7718 2.53831 29.1143C2.71521 26.653 2.88705 24.1968 3.04373 21.7355C3.18525 19.7603 3.33688 17.7903 3.48345 15.8151C3.66035 13.4561 3.82714 11.0972 3.98887 8.7382C4.07479 7.59709 4.15061 6.45087 4.27191 5.31488C4.29553 4.75754 4.44437 4.213 4.70711 3.72265C4.96985 3.23231 5.33958 2.80908 5.78817 2.48515C5.99034 2.34699 6.2481 2.12696 6.45027 2.2293C6.65244 2.33164 6.51597 2.66425 6.49576 2.88428C6.34919 4.99251 6.17229 7.10074 5.99034 9.21408C5.90442 10.3296 5.83366 11.4502 5.75279 12.5658C5.60622 14.5768 5.44954 16.5878 5.30802 18.5988C5.24737 19.4943 5.13618 20.3846 5.14628 21.2852C5.14628 21.8276 5.39394 22.1551 5.82355 22.2012C5.92569 22.206 6.02775 22.1901 6.12375 22.1544C6.21975 22.1188 6.30775 22.0641 6.3826 21.9935C6.45745 21.923 6.51763 21.8381 6.55963 21.7437C6.60162 21.6493 6.62459 21.5473 6.62717 21.4438C6.72825 20.6405 6.77879 19.832 6.83944 19.0235C6.99107 17.0278 7.13933 15.0305 7.28421 13.0314C7.46111 10.5599 7.63801 8.08321 7.81996 5.61679C7.89577 4.53709 7.99686 3.45739 8.07773 2.37769C8.07773 2.14743 8.15859 2.10649 8.39109 2.12696C9.95284 2.26 11.5095 2.35722 13.0713 2.47492C14.9514 2.61308 16.8266 2.77171 18.7067 2.90987L25.9999 3.42157C27.9509 3.56485 29.9018 3.70301 31.8527 3.87699C32.5923 3.8725 33.3294 3.96364 34.0462 4.14819C34.3226 4.23889 34.5768 4.38797 34.792 4.58556C35.0072 4.78316 35.1785 5.02477 35.2946 5.29442C35.5785 5.93237 35.6901 6.63513 35.6181 7.331Z" fill="#D32D9D"/>
<path d="M27.6273 9.24478C28.2641 9.06057 28.8959 8.861 29.5327 8.68702C29.6705 8.65879 29.7975 8.5913 29.8987 8.49248C29.9998 8.39367 30.071 8.26766 30.1039 8.12926C30.3056 7.45478 30.5521 6.79488 30.8418 6.15408C31.0086 6.74766 31.2057 7.331 31.3219 7.93482C31.343 8.15442 31.4336 8.36124 31.5803 8.52446C31.7269 8.68768 31.9217 8.79855 32.1357 8.84053C32.7017 9.00428 33.2425 9.24478 33.8288 9.46482C33.7048 9.5737 33.5519 9.64312 33.3891 9.66438C32.8837 9.81789 32.3783 9.97652 31.8728 10.1198C31.7447 10.1433 31.6262 10.2043 31.5319 10.2953C31.4376 10.3862 31.3716 10.5031 31.3421 10.6315C31.14 11.307 30.8923 11.9671 30.6548 12.6476C30.5234 12.5965 30.5183 12.489 30.493 12.402C30.3212 11.7675 30.1342 11.133 29.9876 10.4933C29.9688 10.4036 29.9265 10.3206 29.8652 10.2531C29.8038 10.1856 29.7256 10.136 29.6389 10.1096C28.9667 9.86906 28.3046 9.59786 27.6172 9.35736L27.6273 9.24478Z" fill="#D32D9D"/>
<path d="M27.6174 5.25859C27.8829 5.26408 28.1376 5.36652 28.3345 5.54705C28.5314 5.72758 28.6572 5.97405 28.6889 6.24107C28.6637 6.45765 28.5596 6.65692 28.397 6.79985C28.2343 6.94278 28.0248 7.01906 27.8094 7.01375C27.5592 7.02266 27.3151 6.93434 27.1272 6.76689C26.9392 6.59944 26.8217 6.36554 26.7986 6.11314C26.8057 5.89314 26.8935 5.6837 27.0449 5.5257C27.1963 5.3677 27.4004 5.27247 27.6174 5.25859Z" fill="#D32D9D"/>
<path d="M6.4301 25.2151C6.43453 25.4467 6.35451 25.6718 6.20532 25.8474C6.05613 26.023 5.84825 26.1367 5.62143 26.1669C5.40525 26.1412 5.20675 26.0334 5.06603 25.8653C4.92531 25.6972 4.85285 25.4813 4.8633 25.2612C4.8554 25.0297 4.93112 24.8033 5.07626 24.6244C5.2214 24.4454 5.426 24.3261 5.65175 24.2889C5.8733 24.3146 6.07692 24.4246 6.22143 24.5965C6.36593 24.7685 6.44052 24.9896 6.4301 25.2151Z" fill="#D32D9D"/>
<path d="M5.57093 42.301C5.56192 42.1663 5.58227 42.0312 5.63054 41.9053C5.67882 41.7795 5.75384 41.6659 5.85028 41.5726C5.94673 41.4794 6.06225 41.4087 6.18865 41.3657C6.31506 41.3227 6.44927 41.3083 6.58177 41.3236L13.3948 41.8353L19.3285 42.2856L26.839 42.8587C26.9664 42.8536 27.0934 42.8763 27.2114 42.9253C27.3294 42.9742 27.4356 43.0483 27.5228 43.1424C27.6101 43.2366 27.6763 43.3486 27.717 43.4709C27.7578 43.5933 27.772 43.723 27.7589 43.8514C27.6932 44.5371 27.3192 44.8083 26.6268 44.7469C25.439 44.6395 24.2462 44.5781 23.0534 44.486L17.605 44.0612L14.067 43.8105C11.5231 43.6195 8.98252 43.425 6.4453 43.2272C6.32761 43.2252 6.21148 43.1996 6.10364 43.1518C5.99579 43.1041 5.89838 43.0351 5.81705 42.949C5.73572 42.8628 5.67209 42.7612 5.62984 42.6499C5.58759 42.5387 5.56757 42.4201 5.57093 42.301Z" fill="#D32D9D"/>
<path d="M29.2042 44.0919C29.1865 43.8628 29.2554 43.6354 29.3971 43.4558C29.5389 43.2762 29.7427 43.1579 29.9674 43.1248C30.1905 43.1457 30.3966 43.2544 30.5413 43.4277C30.6859 43.6009 30.7576 43.8248 30.7407 44.051C30.7481 44.2834 30.6708 44.5103 30.5235 44.6887C30.3763 44.8671 30.1693 44.9843 29.9421 45.0181C29.8332 45.0073 29.7276 44.9746 29.6313 44.922C29.535 44.8694 29.45 44.7979 29.3813 44.7117C29.3126 44.6255 29.2616 44.5263 29.2312 44.4199C29.2008 44.3135 29.1916 44.202 29.2042 44.0919Z" fill="#D32D9D"/>
<path d="M32.0701 27.1801C31.8909 27.0972 31.6948 27.0586 31.4979 27.0675C31.3011 27.0764 31.1092 27.1325 30.938 27.2312C30.03 27.6693 29.0462 27.9231 28.0419 27.9783C28.0585 27.904 28.0787 27.8306 28.1025 27.7583C28.8153 25.8672 29.2033 23.8665 29.2498 21.843C29.3486 19.7097 29.1564 17.5728 28.6787 15.4927C28.2635 13.3976 27.1846 11.4969 25.6058 10.0789C24.5522 9.13893 23.2128 8.59196 21.81 8.52867C20.4071 8.46538 19.025 8.88958 17.893 9.73089C17.5342 10.0123 17.2966 10.1812 16.8114 9.92022C16.2302 9.60808 15.5984 9.86394 15.0324 10.1351C13.5244 10.9079 12.3147 12.1686 11.5955 13.7171C10.0867 16.6222 9.40097 19.8932 9.61425 23.1683C9.69456 24.8125 9.99727 26.4378 10.5139 27.9988C11.828 31.8315 15.0627 34.5896 19.0707 34.6203C20.5252 34.664 21.967 34.333 23.2606 33.6583C24.4671 32.9971 25.5146 32.0746 26.3285 30.9564C26.3771 30.8744 26.446 30.8066 26.5285 30.76C26.611 30.7133 26.7041 30.6893 26.7986 30.6904C28.2049 30.643 29.5944 30.3648 30.9127 29.8665C31.2868 29.7712 31.6303 29.5798 31.91 29.3109C32.1898 29.0421 32.3964 28.7047 32.5098 28.3314C32.5951 28.1189 32.5971 27.8814 32.5154 27.6675C32.4337 27.4535 32.2744 27.2792 32.0701 27.1801ZM19.8591 31.8673C16.8266 32.1078 14.436 30.1224 13.41 27.1289C12.9475 25.7262 12.6904 24.2626 12.6468 22.7845C12.5338 20.5057 12.9348 18.2309 13.8194 16.1323C14.1425 15.3652 14.5769 14.6512 15.1082 14.0139C14.3703 17.4321 14.4562 20.707 15.9724 23.8233C16.6853 25.335 17.6974 26.6824 18.9459 27.7818C20.1944 28.8812 21.6527 29.7092 23.2303 30.2145C22.3454 31.1662 21.1453 31.7546 19.8591 31.8673ZM25.1458 27.3131C24.9184 27.8657 24.9184 27.8811 24.3826 27.6918C20.4656 26.3153 18.2064 23.5367 17.5595 19.4124C17.2758 17.8122 17.3535 16.1678 17.7869 14.6023C18.0186 13.7946 18.4262 13.0497 18.9797 12.4225C20.3999 10.8208 22.5631 10.8873 24.0339 12.535C25.0291 13.7507 25.6697 15.2233 25.8837 16.7873C26.1247 18.1815 26.2498 19.5936 26.2578 21.0089C26.2975 23.1637 25.9198 25.3054 25.1458 27.3131Z" fill="#D32D9D"/>
</svg>
