<svg width="27" height="30" viewBox="0 0 27 30" fill="none" xmlns="http://www.w3.org/2000/svg">
<path d="M25.9388 20.9924L20.2293 18.2736C19.9854 18.1581 19.7144 18.1338 19.4569 18.2043C19.1995 18.2748 18.9697 18.4363 18.802 18.6645L16.2735 22.0969C12.3053 20.0181 9.11177 16.4697 7.24079 12.0606L10.33 9.25118C10.5358 9.06521 10.6815 8.80981 10.7449 8.52364C10.8084 8.23748 10.7862 7.93613 10.6818 7.66521L8.23485 1.32135C8.12021 1.02931 7.91745 0.790869 7.66153 0.647143C7.40562 0.503416 7.11259 0.463413 6.83297 0.53403L1.53131 1.89343C1.26173 1.9626 1.0212 2.13126 0.848995 2.37187C0.676788 2.61249 0.583068 2.91086 0.58313 3.21828C0.58313 17.7469 11.1814 29.5 24.2367 29.5C24.5135 29.5002 24.7821 29.3961 24.9988 29.2048C25.2154 29.0134 25.3673 28.7461 25.4296 28.4465L26.653 22.5557C26.7162 22.2435 26.6794 21.9166 26.549 21.6313C26.4187 21.346 26.2029 21.1201 25.9388 20.9924Z" fill="#FFBCAD"/>
</svg>
