<svg width="81" height="74" viewBox="0 0 81 74" fill="none" xmlns="http://www.w3.org/2000/svg">
<path opacity="0.25" d="M33.9173 2.41276L33.2915 1.78696L32.5943 2.33207C16.5547 14.8721 1.625 29.1175 1.625 52.6388C1.625 59.6663 3.57181 64.7494 6.78438 68.0795C9.99717 71.4098 14.3575 72.8637 18.9371 72.8637C26.7844 72.8637 34.2102 65.7035 34.2102 57.0081C34.2102 52.6763 32.5857 48.9573 30.3719 46.3163C28.1876 43.7105 25.3109 42.0263 22.7238 42.0263C20.8158 42.0263 19.6056 41.3451 18.8346 40.2886C18.0259 39.1803 17.6068 37.5286 17.6068 35.4528C17.6068 32.2717 18.1461 29.1109 20.8387 24.8448C23.5638 20.527 28.5009 15.0688 37.3615 7.37019L38.1712 6.66667L37.4128 5.90821L33.9173 2.41276ZM74.7276 2.44415L74.1083 1.76857L73.3814 2.32672C57.0461 14.8699 42.114 29.1149 42.114 52.6388C42.114 59.6663 44.0608 64.7494 47.2733 68.0795C50.4861 71.4098 54.8465 72.8637 59.4261 72.8637C67.2479 72.8637 74.9905 65.729 74.9905 57.0081C74.9905 52.6629 73.2833 48.9402 70.9955 46.3033C68.7386 43.7022 65.7918 42.0263 63.2128 42.0263C61.3048 42.0263 60.0946 41.3451 59.3236 40.2886C58.5149 39.1803 58.0958 37.5286 58.0958 35.4528C58.0958 32.2717 58.6351 29.1109 61.3277 24.8448C64.0528 20.527 68.9899 15.0688 77.8505 7.37019L78.6257 6.69662L77.9318 5.93959L74.7276 2.44415Z" stroke="#8B8AF2" stroke-width="2"/>
</svg>
