<svg width="53" height="56" viewBox="0 0 53 56" fill="none" xmlns="http://www.w3.org/2000/svg">
<path d="M36.6245 38.5117C37.1372 43.4906 37.3429 48.4963 37.2404 53.5004C37.2638 53.7792 37.3541 54.0483 37.5035 54.2849C37.6528 54.5215 37.857 54.7186 38.0987 54.8596C38.3404 55.0006 38.6125 55.0813 38.892 55.0949C39.1715 55.1085 39.4501 55.0546 39.7043 54.9377C41.5523 53.0898 44.2215 52.2685 46.3774 50.9339C48.4883 49.7683 50.4527 48.3553 52.2292 46.7247C52.3022 46.4962 52.311 46.2519 52.2544 46.0187C52.1979 45.7855 52.0782 45.5724 51.9085 45.4027C51.7389 45.2331 51.5257 45.1134 51.2926 45.0568C51.0594 45.0003 50.8151 45.009 50.5866 45.0821C48.3644 45.9705 46.2329 47.0706 44.2215 48.3673C43.9635 48.7215 43.6517 49.0332 43.2975 49.2913C44.2583 48.1582 45.085 46.918 45.7614 45.5954C47.5031 42.4774 48.7827 39.123 49.5599 35.6372C50.2606 32.0289 50.1834 28.3126 49.3336 24.7365C48.4839 21.1604 46.881 17.8068 44.6321 14.8994C39.8084 8.77408 33.1542 4.34989 25.6396 2.27188C21.7448 1.24458 17.7537 0.625267 13.7307 0.423953C11.6775 0.21863 9.62424 0.218623 7.57099 0.218623C5.60628 0.129924 3.63851 0.302544 1.71925 0.731937C0.897949 1.55324 -0.0260114 2.4772 1.82191 3.2985C3.45429 3.523 5.10431 3.59176 6.74971 3.50383L12.1908 3.81181C16.0554 3.83101 19.908 4.24379 23.689 5.04376C30.5452 6.78017 36.6847 10.6219 41.2443 16.0286C43.3246 18.6006 44.8162 21.5971 45.6144 24.8074C46.4125 28.0177 46.4978 31.3638 45.8641 34.6105C45.2389 37.7909 44.1674 40.8669 42.6816 43.7475C42.1446 44.8852 41.527 45.983 40.8336 47.0327C40.954 44.261 40.9197 41.4849 40.731 38.717C40.115 36.2531 36.2138 36.2531 36.6245 38.5117Z" fill="#FFD5CA"/>
</svg>
