<svg width="18" height="20" viewBox="0 0 18 20" fill="none" xmlns="http://www.w3.org/2000/svg">
<path d="M8.75 10C11.5117 10 13.75 7.76172 13.75 5C13.75 2.23828 11.5117 0 8.75 0C5.98828 0 3.75 2.23828 3.75 5C3.75 7.76172 5.98828 10 8.75 10ZM12.4922 11.2734L10.625 18.75L9.375 13.4375L10.625 11.25H6.875L8.125 13.4375L6.875 18.75L5.00781 11.2734C2.22266 11.4062 0 13.6836 0 16.5V18.125C0 19.1602 0.839844 20 1.875 20H15.625C16.6602 20 17.5 19.1602 17.5 18.125V16.5C17.5 13.6836 15.2773 11.4062 12.4922 11.2734Z" fill="#939DAA"/>
</svg>
