<svg width="26" height="25" viewBox="0 0 26 25" fill="none" xmlns="http://www.w3.org/2000/svg">
<g opacity="0.1">
<path d="M20.8125 3.125H5.1875C4.7731 3.125 4.37567 3.28962 4.08265 3.58265C3.78962 3.87567 3.625 4.2731 3.625 4.6875V20.3125C3.625 20.7269 3.78962 21.1243 4.08265 21.4174C4.37567 21.7104 4.7731 21.875 5.1875 21.875H20.8125C21.2269 21.875 21.6243 21.7104 21.9174 21.4174C22.2104 21.1243 22.375 20.7269 22.375 20.3125V4.6875C22.375 4.2731 22.2104 3.87567 21.9174 3.58265C21.6243 3.28962 21.2269 3.125 20.8125 3.125ZM5.1875 20.3125V4.6875H20.8125V20.3125H5.1875Z" fill="#303D4D"/>
<path d="M11.4375 16.7969L7.53125 12.9219L8.77344 11.7188L11.4375 14.3359L17.2266 8.59375L18.4688 9.82812L11.4375 16.7969Z" fill="#303D4D"/>
</g>
</svg>
